<svg width="16" height="16" viewBox="0 0 16 16" fill="none" xmlns="http://www.w3.org/2000/svg">
<path d="M1.6281 16C1.17224 16 0.78692 15.8397 0.472152 15.519C0.157384 15.1983 0 14.8159 0 14.3719V1.6281C0 1.18405 0.157384 0.801688 0.472152 0.481013C0.78692 0.160338 1.17224 0 1.6281 0H14.3719C14.8278 0 15.2131 0.160338 15.5278 0.481013C15.8426 0.801688 16 1.18405 16 1.6281V14.3719C16 14.8159 15.8426 15.1983 15.5278 15.519C15.2131 15.8397 14.8278 16 14.3719 16H1.6281ZM1.6281 14.6835H14.3719C14.4499 14.6835 14.5213 14.6511 14.5861 14.5861C14.6511 14.5213 14.6835 14.4499 14.6835 14.3719V4.43241H1.31646V14.3719C1.31646 14.4499 1.34895 14.5213 1.41392 14.5861C1.47873 14.6511 1.55013 14.6835 1.6281 14.6835Z" fill="#62636C"/>
</svg>
