<svg width="16" height="16" viewBox="0 0 16 16" fill="none" xmlns="http://www.w3.org/2000/svg">
<path d="M6.3284 15L4.47225 11.536L1 9.6716L2.13006 8.51198L5.13945 9.02715L7.41445 6.77341L1.02445 4.01917L2.52914 2.53914L10.2259 3.94879L12.7856 1.38101C13.0396 1.127 13.3451 1 13.7022 1C14.0592 1 14.3648 1.127 14.619 1.38101C14.873 1.63516 15 1.93856 15 2.29122C15 2.64403 14.873 2.94743 14.619 3.20144L12.0593 5.75285L13.4692 13.4789L11.9725 14.9755L9.23488 8.58555L6.98114 10.8606L7.47994 13.8699L6.3284 15Z" fill="#FCFCFD"/>
</svg>
