<svg width="16" height="16" viewBox="0 0 16 16" fill="none" xmlns="http://www.w3.org/2000/svg">
<rect width="16" height="16" fill="white" fill-opacity="0.01"/>
<path fill-rule="evenodd" clip-rule="evenodd" d="M3.52936 1.06641C3.12534 1.06641 2.75598 1.29467 2.5753 1.65605L1.12272 4.56122C1.08568 4.63528 1.06641 4.71695 1.06641 4.79974V13.8664C1.06641 14.4555 1.54397 14.9331 2.13307 14.9331H13.8664C14.4555 14.9331 14.9331 14.4555 14.9331 13.8664V4.79974C14.9331 4.71695 14.9138 4.63528 14.8768 4.56122L13.4242 1.65607C13.2435 1.2947 12.8742 1.06644 12.4701 1.06644L7.99974 1.06642L3.52936 1.06641ZM3.52936 2.13307L7.46641 2.13308V4.26641H2.46269L3.52936 2.13307ZM8.53307 4.26641V2.13309L12.4701 2.13311L13.5368 4.26641H8.53307ZM7.99974 5.33307H13.8664V13.8664H2.13307V5.33307H7.99974ZM5.86641 7.46641C5.57186 7.46641 5.33307 7.70519 5.33307 7.99974C5.33307 8.29429 5.57186 8.53307 5.86641 8.53307H10.1331C10.4276 8.53307 10.6664 8.29429 10.6664 7.99974C10.6664 7.70519 10.4276 7.46641 10.1331 7.46641H5.86641Z" fill="#62636C"/>
</svg>
