<svg width="166" height="125" viewBox="0 0 166 125" fill="none" xmlns="http://www.w3.org/2000/svg">
<path d="M91.2866 40.4003C88.6288 42.586 85.222 43.9003 81.5122 43.9003C73.0085 43.9003 66.1134 37.0052 66.1134 28.5015C66.1134 19.9977 73.0085 13.1026 81.5122 13.1026C85.2249 13.1026 88.6288 14.417 91.2866 16.6026H106.863C102.39 7.09056 92.7204 0.501465 81.5122 0.501465C66.0493 0.501465 53.5122 13.0385 53.5122 28.5015C53.5122 43.9644 66.0493 56.5015 81.5122 56.5015C92.7204 56.5015 102.39 49.9153 106.863 40.4003H91.2866Z" fill="url(#paint0_linear_4253_36781)"/>
<path d="M81.5122 13.104C85.2249 13.104 88.6288 14.4184 91.2866 16.604H91.2953C87.9031 9.38256 81.5151 3.84842 73.7341 1.59863C62.0538 4.96749 53.5122 15.7385 53.5122 28.5029C53.5122 41.2672 62.0451 52.0266 73.7166 55.4042C81.5005 53.1573 87.8915 47.6261 91.2895 40.4046C88.6317 42.5903 85.2249 43.9046 81.5151 43.9046C73.0114 43.9046 66.1163 37.0095 66.1163 28.5058C66.1163 20.002 73.0114 13.107 81.5151 13.107L81.5122 13.104Z" fill="url(#paint1_linear_4253_36781)"/>
<path d="M96.9256 28.5027L91.2952 18.7021H85.1637L90.794 28.5027L90.7969 28.4998" fill="#3A79BA"/>
<path d="M90.7969 28.498L90.794 28.501H90.7969H90.794L85.1637 38.3015H91.2952L96.9256 28.501" fill="url(#paint2_linear_4253_36781)"/>
<path d="M112.488 28.5027L106.857 18.7021H100.729L106.359 28.5027V28.4998" fill="#3A79BA"/>
<path d="M106.359 28.498V28.501L100.729 38.3015H106.857L112.488 28.501" fill="url(#paint3_linear_4253_36781)"/>
<path d="M104.724 28.5027L99.0938 18.7021H92.9623L98.5926 28.5027V28.4998" fill="#3A79BA"/>
<path d="M98.5926 28.498V28.501L92.9623 38.3015H99.0938L104.724 28.501" fill="url(#paint4_linear_4253_36781)"/>
<path d="M135.79 75.0914H135.844C136.77 75.0914 137.567 74.7706 138.234 74.1289C138.901 73.4872 139.232 72.7157 139.232 71.8217V71.7712C139.232 70.8736 138.901 70.1057 138.234 69.464C137.567 68.8223 136.774 68.5015 135.844 68.5015H135.79C134.86 68.5015 134.067 68.8223 133.4 69.464C132.733 70.1057 132.401 70.8772 132.401 71.7712V71.8217C132.401 72.7193 132.733 73.4872 133.4 74.1289C134.067 74.7706 134.86 75.0914 135.79 75.0914Z" fill="#C12890"/>
<path d="M121.431 100.534H128.828V102.023C128.828 103.876 127.322 105.382 125.469 105.382H118.071V103.894C118.071 102.041 119.578 100.534 121.431 100.534Z" fill="#C12890"/>
<path d="M147.982 75.0914H148.036C148.962 75.0914 149.759 74.7706 150.426 74.1289C151.093 73.4872 151.425 72.7157 151.425 71.8217V71.7712C151.425 70.8736 151.093 70.1057 150.426 69.464C149.759 68.8223 148.966 68.5015 148.036 68.5015H147.982C147.052 68.5015 146.259 68.8223 145.592 69.464C144.925 70.1057 144.593 70.8772 144.593 71.7712V71.8217C144.593 72.7193 144.925 73.4872 145.592 74.1289C146.259 74.7706 147.052 75.0914 147.982 75.0914Z" fill="#C12890"/>
<path d="M160.311 106.43H160.365C161.291 106.43 162.088 106.109 162.755 105.468C163.422 104.826 163.754 104.055 163.754 103.161V103.11C163.754 102.212 163.422 101.445 162.755 100.803C162.088 100.161 161.295 99.8403 160.365 99.8403H160.311C159.381 99.8403 158.588 100.161 157.921 100.803C157.254 101.445 156.922 102.216 156.922 103.11V103.161C156.922 104.058 157.254 104.826 157.921 105.468C158.588 106.109 159.381 106.43 160.311 106.43Z" fill="#C12890"/>
<path d="M155.574 76.9238V88.7951H152.766V76.9238H143.23V103.969H144.91C146.785 103.969 148.432 103.403 149.86 102.271C151.288 101.139 152.192 99.7182 152.578 98.0094H157.279C158.732 98.0094 160.051 97.6706 161.23 96.9964C162.413 96.3187 163.357 95.4066 164.067 94.2566C164.778 93.1067 165.131 91.8377 165.131 90.4498V76.9274H155.57L155.574 76.9238Z" fill="#2369B3"/>
<path d="M131.046 76.9238V88.7951H128.244V76.9238H118.709V88.7951H115.908V84.4835C115.908 83.0956 115.566 81.8374 114.884 80.7055C114.199 79.5735 113.277 78.665 112.112 77.9765C110.948 77.2915 109.657 76.9419 108.24 76.9238H94.0835V88.9753C92.3135 89.3466 90.8498 90.2191 89.6854 91.589C88.521 92.9589 87.937 94.5487 87.937 96.3584V103.969H89.6422C91.095 103.969 92.4144 103.626 93.5969 102.941C94.7793 102.256 95.7202 101.337 96.4196 100.187C96.8341 99.5019 97.1261 98.7773 97.2956 98.0058H120.418C121.031 98.0058 121.59 97.8328 122.098 97.4867C122.606 97.1406 122.967 96.6864 123.176 96.1312H123.781C123.991 96.69 124.351 97.1406 124.859 97.4867C125.368 97.8328 125.926 98.0058 126.539 98.0058H132.754C134.207 98.0058 135.527 97.667 136.705 96.9928C137.888 96.3151 138.832 95.403 139.543 94.253C140.253 93.1031 140.606 91.8341 140.606 90.4462V76.9238H131.046ZM108.388 87.4901C108.388 88.3877 108.056 89.1556 107.39 89.7973C106.723 90.439 105.926 90.7598 104.999 90.7598H104.945C104.019 90.7598 103.222 90.439 102.555 89.7973C101.888 89.1556 101.557 88.3841 101.557 87.4901V87.4396C101.557 86.542 101.888 85.7741 102.555 85.1324C103.222 84.4907 104.015 84.1699 104.945 84.1699H104.999C105.926 84.1699 106.723 84.4907 107.39 85.1324C108.056 85.7741 108.388 86.5456 108.388 87.4396V87.4901Z" fill="#2369B3"/>
<path d="M11.7707 75.0959H11.8247C12.7512 75.0959 13.5479 74.7751 14.2148 74.1334C14.8818 73.4917 15.2134 72.7202 15.2134 71.8262V71.7757C15.2134 70.8781 14.8818 70.1102 14.2148 69.4685C13.5479 68.8268 12.7512 68.506 11.8247 68.506H11.7707C10.8406 68.506 10.0475 68.8268 9.38054 69.4685C8.71362 70.1102 8.38196 70.8817 8.38196 71.7757V71.8262C8.38196 72.7238 8.71362 73.4917 9.38054 74.1334C10.0475 74.7751 10.8406 75.0959 11.7707 75.0959Z" fill="#C12890"/>
<path d="M64.8037 100.534H72.2012V102.023C72.2012 103.876 70.6943 105.383 68.8413 105.383H61.4438V103.894C61.4438 102.041 62.9507 100.534 64.8037 100.534Z" fill="#C12890"/>
<path d="M79.1949 106.431H79.2489C80.1754 106.431 80.9721 106.11 81.639 105.468C82.306 104.826 82.6376 104.055 82.6376 103.161V103.11C82.6376 102.213 82.306 101.445 81.639 100.803C80.9721 100.161 80.179 99.8406 79.2489 99.8406H79.1949C78.2648 99.8406 77.4717 100.161 76.8047 100.803C76.1378 101.445 75.8062 102.216 75.8062 103.11V103.161C75.8062 104.058 76.1378 104.826 76.8047 105.468C77.4717 106.11 78.2648 106.431 79.1949 106.431Z" fill="#C12890"/>
<path d="M13.1874 94.7329H10.4296V76.9242H0.869141V96.3804C0.869141 97.7683 1.22243 99.0336 1.93261 100.187C2.6428 101.337 3.59091 102.256 4.78056 102.941C5.97021 103.626 7.28603 103.969 8.72082 103.969H14.8673C16.3202 103.969 17.6396 103.626 18.8184 102.941C20.0009 102.256 20.9454 101.337 21.6555 100.187C22.3657 99.0372 22.719 97.7683 22.719 96.3804V76.9242H13.1838V94.7329H13.1874Z" fill="#2369B3"/>
<path d="M74.4615 88.7954H71.6605V76.9242H62.1252V88.7954H59.317V76.9242H49.7817V103.969H51.4617C53.3363 103.969 54.9838 103.403 56.4113 102.271C57.8389 101.139 58.7438 99.7186 59.1295 98.0098H63.8304C64.4433 98.0098 65.002 97.8368 65.5103 97.4907C66.0186 97.1446 66.3791 96.6904 66.5882 96.1352H67.1939C67.403 96.694 67.7635 97.1446 68.2718 97.4907C68.7801 97.8368 69.3388 98.0098 69.9517 98.0098H76.1667C77.6195 98.0098 78.9389 97.6709 80.1178 96.9968C81.3002 96.3191 82.2447 95.407 82.9549 94.257C83.6651 93.107 84.0184 91.8381 84.0184 90.4501V76.9278H74.4579V88.799L74.4615 88.7954Z" fill="#2369B3"/>
<path d="M32.8887 76.9235C31.5044 76.9235 30.2463 77.266 29.1071 77.951C27.9679 78.6359 27.0594 79.5408 26.3745 80.6655C25.6932 81.7903 25.3399 83.0304 25.3254 84.3823V90.5468C25.3254 91.9167 25.6787 93.1676 26.3889 94.2996C27.0991 95.4316 28.0472 96.3328 29.2369 96.9997C30.4265 97.6667 31.7315 98.0019 33.1519 98.0019H37.6185V103.965H39.3272C40.7801 103.965 42.0995 103.622 43.2783 102.937C44.4608 102.252 45.4017 101.333 46.101 100.183C46.8004 99.033 47.1501 97.764 47.1501 96.3761V76.9199H32.8887V76.9235ZM39.6517 87.4934C39.6517 88.391 39.32 89.1589 38.6531 89.8006C37.9862 90.4423 37.1895 90.7631 36.263 90.7631H36.2089C35.2788 90.7631 34.4857 90.4423 33.8188 89.8006C33.1519 89.1589 32.8202 88.3874 32.8202 87.4934V87.4429C32.8202 86.5453 33.1519 85.7774 33.8188 85.1357C34.4857 84.494 35.2788 84.1732 36.2089 84.1732H36.263C37.1895 84.1732 37.9862 84.494 38.6531 85.1357C39.32 85.7774 39.6517 86.5489 39.6517 87.4429V87.4934Z" fill="#2369B3"/>
<path d="M48.6823 116.953C47.9469 116.163 47.1862 115.395 46.4328 114.62C46.0218 114.195 45.6397 113.485 45.1818 113.438C44.6627 113.38 44.259 114.127 43.8047 114.523C43.4515 114.833 43.145 115.093 42.561 114.959C41.0902 114.624 39.6229 115.446 39.0642 116.801C38.646 117.818 38.8298 118.777 39.3526 119.725C39.2336 119.747 39.1687 119.776 39.1002 119.776C38.4009 119.779 37.6979 119.758 36.9985 119.79C36.5803 119.808 36.4938 119.646 36.5082 119.285C36.5335 118.705 36.5154 118.124 36.5154 117.544C36.5154 116.703 36.0804 116.292 35.2104 116.311C34.2371 116.333 33.7865 116.762 33.7684 117.688C33.7576 118.222 33.7901 118.755 33.7504 119.285C33.7144 119.779 33.4332 120.096 32.8816 120.089C32.3373 120.078 32.1462 119.718 32.1246 119.271C32.0957 118.669 32.1137 118.063 32.1137 117.458C32.1137 116.676 31.6992 116.296 30.87 116.315C29.8462 116.336 29.3667 116.787 29.3271 117.786C29.3091 118.218 29.3271 118.658 29.3271 119.091C29.3271 119.613 29.2406 120.107 28.5484 120.086C27.9211 120.064 27.8094 119.61 27.8094 119.105C27.8094 118.33 27.8094 117.558 27.8094 116.783C27.8094 116.535 27.8274 116.344 27.4417 116.304C25.6031 116.109 25.066 116.549 25.066 118.316V118.68C25.0624 119.732 24.8533 119.923 23.7429 119.934C21.5151 119.952 21.5727 120.06 21.5908 117.829C21.6016 116.192 21.5908 116.192 19.9144 116.3C19.2619 116.344 18.8906 116.65 18.8726 117.295C18.8582 117.804 18.8654 118.312 18.8654 118.82C18.8654 119.444 18.5734 119.754 17.9028 119.74C16.8754 119.721 15.8444 119.696 14.8206 119.75C14.1969 119.783 14.0924 119.556 14.096 119.015C14.1248 116.499 14.114 113.982 14.1032 111.47C14.1032 111.253 14.2474 110.972 13.9265 110.835C12.7838 110.341 11.3958 111.16 11.3886 112.36C11.3742 114.876 11.3742 117.393 11.3886 119.909C11.3994 121.43 12.3944 122.386 13.977 122.404C15.2027 122.414 16.432 122.411 17.6577 122.404C18.5301 122.404 19.4169 122.505 20.2137 122.018C20.4552 121.87 20.6282 122.061 20.8337 122.14C22.7011 122.84 24.5685 122.89 26.407 122.05C26.663 121.931 26.8072 121.884 27.0631 122.05C28.2672 122.818 29.5037 122.807 30.7222 122.079C30.9926 121.913 31.1476 121.906 31.4288 122.079C32.7843 122.89 34.1181 122.858 35.3835 121.874C35.607 121.701 35.7404 121.596 35.9675 121.899C36.2631 122.295 36.7281 122.414 37.2328 122.414C38.5595 122.407 39.8861 122.411 41.2164 122.414C41.6237 122.414 42.0239 122.357 42.3627 122.14C42.7305 121.906 42.9684 122.003 43.2604 122.277C44.2518 123.215 45.463 123.51 46.7861 123.193C49.7602 122.472 50.7516 119.181 48.6859 116.971L48.6823 116.953ZM42.3916 119.321C41.5913 119.329 40.9063 118.672 40.9027 117.901C40.8991 117.166 41.5552 116.564 42.3663 116.56C43.1667 116.56 43.812 117.158 43.8156 117.912C43.8228 118.644 43.145 119.314 42.3916 119.318V119.321ZM46.0831 121.167C45.2539 121.127 44.5834 120.442 44.5978 119.646C44.6087 118.874 45.3044 118.218 46.0939 118.233C46.887 118.251 47.626 118.957 47.59 119.667C47.5503 120.515 46.8582 121.203 46.0831 121.167Z" fill="#2369B3"/>
<path d="M76.5309 117.116C75.7702 116.25 74.9447 115.443 74.1552 114.599C72.8934 113.251 72.8898 113.24 71.5524 114.509C71.1703 114.87 70.8242 115.036 70.2402 114.927C67.951 114.495 66.0007 116.683 66.7145 118.835C66.8154 119.142 66.9488 119.437 67.0714 119.755H64.9841C65.5537 117.455 65.1896 116.164 63.6935 115.187C62.5038 114.408 60.7843 114.491 59.5477 115.385C58.2644 116.315 57.9111 117.786 58.5347 119.773C56.7971 119.773 55.1172 119.773 53.4409 119.773C52.0169 119.773 51.35 120.458 51.3428 121.831C51.3428 122.278 51.469 122.397 51.9304 122.393C54.6846 122.372 66.8262 122.393 68.5026 122.401C68.9748 122.401 69.4362 122.296 69.7607 122.004C70.2402 121.571 70.4745 121.744 70.8674 122.13C72.3743 123.623 74.6527 123.688 76.1992 122.339C77.8539 120.897 78.0017 118.788 76.5273 117.108L76.5309 117.116ZM61.8261 119.502C61.0366 119.531 60.3517 118.936 60.3228 118.201C60.2904 117.44 60.9681 116.744 61.754 116.73C62.5111 116.716 63.1816 117.343 63.214 118.089C63.2429 118.835 62.6192 119.473 61.8261 119.502ZM70.0383 119.315C69.3281 119.333 68.6612 118.687 68.6504 117.974C68.6395 117.184 69.2452 116.571 70.0347 116.568C70.8061 116.564 71.4695 117.148 71.4839 117.844C71.5019 118.615 70.8386 119.286 70.0347 119.311L70.0383 119.315ZM73.8091 121.124C72.9655 121.103 72.3094 120.436 72.3202 119.61C72.3311 118.879 73.0701 118.208 73.8632 118.212C74.6563 118.219 75.3304 118.886 75.3232 119.664C75.316 120.515 74.6635 121.142 73.8091 121.124Z" fill="#2369B3"/>
<path d="M7.50959 119.628C6.40647 118.457 5.45114 117.404 4.45256 116.391C3.02858 114.945 3.90099 114.055 4.9897 113.233C5.23124 113.053 5.28171 113.262 5.37904 113.366C6.7958 114.866 8.25222 116.33 9.6077 117.88C11.0894 119.578 10.4945 121.755 8.47213 122.3C8.25943 122.357 8.03232 122.383 7.81241 122.386C5.7071 122.393 3.60538 122.375 1.50007 122.401C1.0206 122.408 0.865587 122.296 0.872797 121.809C0.887217 120.27 1.50367 119.636 3.07905 119.632C4.49942 119.632 5.91979 119.632 7.5132 119.632L7.50959 119.628Z" fill="#2369B3"/>
<path d="M60.0596 111.851C60.0596 111.029 60.7121 110.369 61.5448 110.355C62.3343 110.341 63.0878 111.04 63.1094 111.804C63.131 112.594 62.4317 113.315 61.635 113.322C60.7409 113.333 60.056 112.695 60.0596 111.848V111.851Z" fill="#2369B3"/>
<path d="M33.9702 113.22C33.9811 114.009 33.3249 114.666 32.5246 114.68C31.7027 114.691 30.9853 113.999 30.9997 113.206C31.0141 112.438 31.7027 111.789 32.503 111.792C33.3249 111.792 33.963 112.416 33.9702 113.224V113.22Z" fill="#2369B3"/>
<path d="M29.1431 111.788C29.9543 111.778 30.6248 112.401 30.6464 113.191C30.668 113.984 29.9615 114.683 29.1395 114.676C28.3536 114.669 27.6759 114.005 27.6615 113.223C27.6471 112.473 28.3464 111.796 29.1395 111.788H29.1431Z" fill="#2369B3"/>
<path d="M32.3192 110.365C32.33 111.176 31.728 111.796 30.9024 111.818C30.0769 111.839 29.3883 111.241 29.3559 110.473C29.3198 109.655 29.9904 108.977 30.8267 108.981C31.6739 108.984 32.3084 109.572 32.3192 110.365Z" fill="#2369B3"/>
<path d="M22.2541 113.195C22.2649 113.984 21.6088 114.64 20.8085 114.655C19.9865 114.666 19.2691 113.973 19.2835 113.18C19.298 112.412 19.9865 111.763 20.7868 111.767C21.6088 111.767 22.2468 112.391 22.2541 113.198V113.195Z" fill="#2369B3"/>
<path d="M17.4233 111.763C18.2344 111.752 18.9049 112.376 18.9266 113.165C18.9482 113.958 18.2416 114.658 17.4197 114.651C16.6338 114.643 15.956 113.98 15.9416 113.198C15.9272 112.448 16.6266 111.77 17.4197 111.763H17.4233Z" fill="#2369B3"/>
<path d="M87.3386 115.545C87.5441 115.545 87.7208 115.484 87.8614 115.358C88.0056 115.232 88.0777 115.07 88.0777 114.868C88.0777 114.666 88.0056 114.496 87.8614 114.37C87.7172 114.244 87.5441 114.183 87.3386 114.183C87.1331 114.183 86.9601 114.244 86.8159 114.37C86.6717 114.496 86.5996 114.659 86.5996 114.868C86.5996 115.077 86.6717 115.235 86.8159 115.358C86.9601 115.481 87.1331 115.545 87.3386 115.545Z" fill="#2369B3"/>
<path d="M96.1961 117.526L95.1182 118.554C95.2552 118.741 95.3742 118.954 95.4751 119.188C95.576 119.422 95.6626 119.653 95.7311 119.88C95.6229 119.999 95.5256 120.078 95.4355 120.118C95.3489 120.161 95.2156 120.179 95.0425 120.179C94.7577 120.179 94.5594 120.133 94.4513 120.035C94.3431 119.938 94.2891 119.768 94.2891 119.527C94.2891 119.437 94.2927 119.321 94.3035 119.184C94.3143 119.047 94.3251 118.928 94.3395 118.82H93.2797C93.2328 119.177 93.1787 119.458 93.121 119.657C93.0634 119.859 92.9841 119.996 92.8831 120.078C92.7822 120.158 92.6416 120.197 92.4577 120.197C92.209 120.197 92.0468 120.151 91.9711 120.053C91.8954 119.956 91.8557 119.79 91.8557 119.552C91.8557 119.347 91.8881 119.058 91.9494 118.691L90.8896 118.546C90.8211 118.932 90.7526 119.238 90.6841 119.462C90.6156 119.686 90.5182 119.848 90.3885 119.941C90.2587 120.035 90.0748 120.086 89.8297 120.086H89.8261C89.6711 120.086 89.5016 120.086 89.3142 120.078C89.1267 120.075 88.9645 120.068 88.8239 120.06C88.9897 119.873 89.1231 119.667 89.224 119.444C89.325 119.22 89.3755 118.983 89.3755 118.737C89.3755 118.355 89.2925 118.002 89.1267 117.685C88.9609 117.367 88.7338 117.112 88.4454 116.924C88.1534 116.733 87.8217 116.639 87.4432 116.639C87.0647 116.639 86.751 116.737 86.4626 116.935C86.1778 117.133 85.9507 117.404 85.7885 117.746C85.6263 118.088 85.5434 118.474 85.5434 118.907C85.5434 119.123 85.5794 119.332 85.6479 119.53C85.7164 119.729 85.8029 119.905 85.9111 120.068C85.8173 120.075 85.6984 120.082 85.5578 120.086C85.4172 120.086 85.2802 120.089 85.1468 120.089H85.1432C84.9341 120.089 84.7611 120.053 84.6241 119.974C84.4871 119.895 84.3573 119.765 84.2311 119.574C84.105 119.383 83.9572 119.112 83.7877 118.766L83.5246 118.258L82.2808 119.783C82.5224 120.14 82.7278 120.489 82.8973 120.832C83.0667 121.174 83.2181 121.531 83.3515 121.899C83.0811 122.195 82.7531 122.422 82.3601 122.584C81.9708 122.746 81.5779 122.865 81.1849 122.937L80.7595 123.921C80.9938 124.073 81.2029 124.188 81.3868 124.271C81.5706 124.354 81.7509 124.408 81.9203 124.437C82.0934 124.466 82.2736 124.484 82.4647 124.484C82.8216 124.484 83.1496 124.365 83.4489 124.13C83.7481 123.896 83.9932 123.568 84.1843 123.157C84.3753 122.743 84.4907 122.274 84.5267 121.748C84.6205 121.809 84.7142 121.856 84.8115 121.888C84.9053 121.917 85.0134 121.935 85.1396 121.935H85.1432C85.9147 121.935 86.6032 121.78 87.2125 121.466C87.5261 121.639 87.8974 121.758 88.3192 121.83C88.7446 121.899 89.2421 121.935 89.8225 121.935H89.8261C90.0099 121.935 90.1938 121.903 90.3813 121.838C90.5687 121.773 90.7381 121.672 90.886 121.531C91.0338 121.391 91.1419 121.221 91.2068 121.012C91.2789 121.333 91.4339 121.582 91.6682 121.762C91.9062 121.942 92.1801 122.029 92.4974 122.029C92.7966 122.029 93.067 121.946 93.3193 121.776C93.5681 121.607 93.7375 121.358 93.8276 121.03C93.8889 121.347 94.0295 121.593 94.2422 121.766C94.4549 121.939 94.7361 122.025 95.0858 122.025C95.3057 122.025 95.4967 121.989 95.6554 121.921C95.814 121.852 95.9834 121.748 96.1529 121.614C96.3259 121.279 96.4593 120.933 96.5602 120.572C96.6576 120.212 96.708 119.884 96.708 119.592C96.708 119.105 96.6539 118.698 96.5494 118.37C96.4449 118.042 96.3223 117.764 96.1853 117.537L96.1961 117.526ZM87.8974 119.444C87.764 119.567 87.6018 119.667 87.4071 119.75C87.2341 119.671 87.0899 119.57 86.9709 119.451C86.852 119.332 86.7727 119.177 86.733 118.99C86.7654 118.788 86.8448 118.608 86.9709 118.453C87.0971 118.298 87.2521 118.218 87.4324 118.218C87.6126 118.218 87.7784 118.298 87.9154 118.456C88.0524 118.615 88.1426 118.791 88.1822 118.99C88.1245 119.174 88.0308 119.325 87.8974 119.448V119.444Z" fill="#2369B3"/>
<path d="M104.902 117.448C105.108 117.448 105.284 117.387 105.425 117.261C105.566 117.135 105.641 116.972 105.641 116.77C105.641 116.569 105.569 116.399 105.425 116.273C105.281 116.147 105.108 116.085 104.902 116.085C104.697 116.085 104.524 116.147 104.38 116.273C104.235 116.399 104.163 116.561 104.163 116.77C104.163 116.979 104.235 117.138 104.38 117.261C104.524 117.387 104.697 117.448 104.902 117.448Z" fill="#2369B3"/>
<path d="M115.288 117.66C115.609 117.66 116.042 117.645 116.586 117.613C117.13 117.58 117.462 117.562 117.577 117.555C117.747 117.234 117.83 116.946 117.83 116.683C117.83 116.297 117.595 116.102 117.127 116.102C116.413 116.102 115.695 116.138 114.967 116.207C114.794 116.528 114.711 116.798 114.711 117.022C114.711 117.245 114.769 117.407 114.884 117.508C115 117.609 115.137 117.66 115.292 117.66H115.288Z" fill="#2369B3"/>
<path d="M116.37 115.66C116.553 115.66 116.712 115.602 116.838 115.487C116.964 115.371 117.033 115.223 117.033 115.04C117.033 114.856 116.968 114.704 116.838 114.593C116.708 114.481 116.55 114.42 116.359 114.42C116.168 114.42 116.013 114.477 115.887 114.596C115.76 114.715 115.699 114.863 115.699 115.043C115.699 115.223 115.764 115.371 115.894 115.487C116.024 115.602 116.182 115.66 116.366 115.66H116.37Z" fill="#2369B3"/>
<path d="M119.138 117.526L118.06 118.553C118.197 118.741 118.316 118.954 118.417 119.188C118.518 119.422 118.605 119.653 118.673 119.88C118.565 119.999 118.468 120.078 118.378 120.118C118.291 120.161 118.158 120.179 117.985 120.179C117.7 120.179 117.502 120.132 117.394 120.035C117.285 119.938 117.231 119.768 117.231 119.527C117.231 119.437 117.235 119.321 117.246 119.184C117.257 119.047 117.267 118.928 117.282 118.82H116.222C116.175 119.177 116.121 119.458 116.063 119.657C116.006 119.858 115.926 119.995 115.825 120.078C115.724 120.158 115.584 120.197 115.4 120.197C115.151 120.197 114.989 120.15 114.913 120.053C114.838 119.956 114.798 119.79 114.798 119.552C114.798 119.347 114.83 119.058 114.892 118.69L113.832 118.546C113.763 118.932 113.695 119.238 113.626 119.462C113.558 119.685 113.46 119.848 113.331 119.941C113.201 120.035 113.017 120.086 112.772 120.086H112.768C112.552 120.086 112.372 120.057 112.228 120.003C112.083 119.949 111.954 119.844 111.842 119.685C111.73 119.527 111.618 119.296 111.503 118.986C111.442 118.813 111.362 118.636 111.269 118.449C111.175 118.261 111.063 118.088 110.937 117.926C110.807 117.764 110.656 117.634 110.483 117.533C110.31 117.432 110.108 117.382 109.881 117.382C109.639 117.382 109.423 117.44 109.228 117.555C109.034 117.67 108.842 117.861 108.659 118.121C108.471 118.384 108.273 118.737 108.057 119.181C107.945 119.415 107.804 119.624 107.628 119.808C107.455 119.992 107.22 120.082 106.928 120.082H106.925C106.586 120.082 106.355 120.014 106.225 119.873C106.095 119.732 106.031 119.548 106.031 119.325C106.031 119.217 106.041 119.098 106.059 118.972C106.081 118.845 106.103 118.712 106.128 118.575L105.036 118.442C104.974 118.763 104.917 119.029 104.859 119.242C104.801 119.455 104.726 119.621 104.628 119.743C104.531 119.866 104.398 119.956 104.228 120.006C104.059 120.057 103.828 120.086 103.54 120.086H103.536C103.266 120.086 103.024 120.042 102.811 119.956L101.517 116.297L100.025 117.584L101.265 119.941C101.099 120.021 100.922 120.082 100.738 120.118C100.551 120.154 100.349 120.172 100.133 120.172C99.5812 120.172 99.091 120.078 98.6656 119.895L98.2834 121.538C98.5827 121.697 98.8963 121.816 99.228 121.895C99.5596 121.975 99.9165 122.018 100.302 122.018C100.688 122.018 100.984 121.949 101.222 121.812C101.459 121.675 101.672 121.488 101.867 121.243C101.971 121.416 102.094 121.553 102.231 121.654C102.368 121.755 102.541 121.823 102.75 121.863C102.959 121.903 103.222 121.924 103.543 121.924H103.547C103.94 121.924 104.289 121.848 104.599 121.697C104.909 121.546 105.14 121.286 105.292 120.918C105.425 121.286 105.612 121.546 105.854 121.697C106.095 121.848 106.456 121.924 106.928 121.924H106.932C107.332 121.924 107.656 121.812 107.905 121.585C108.154 121.362 108.359 121.084 108.525 120.756L108.331 121.506C108.5 121.675 108.724 121.802 109.001 121.888C109.279 121.975 109.567 122.018 109.866 122.018C110.166 122.018 110.465 121.975 110.76 121.892C111.056 121.809 111.312 121.672 111.528 121.481C111.543 121.405 111.553 121.333 111.561 121.261C111.568 121.189 111.575 121.113 111.586 121.034C111.773 121.398 111.957 121.636 112.134 121.751C112.31 121.866 112.523 121.924 112.768 121.924H112.772C112.956 121.924 113.14 121.892 113.327 121.827C113.515 121.762 113.684 121.661 113.832 121.52C113.98 121.38 114.088 121.21 114.153 121.001C114.225 121.322 114.38 121.571 114.614 121.751C114.852 121.931 115.126 122.018 115.443 122.018C115.742 122.018 116.013 121.935 116.265 121.766C116.514 121.596 116.683 121.347 116.773 121.019C116.835 121.337 116.975 121.582 117.188 121.755C117.401 121.928 117.682 122.014 118.032 122.014C118.252 122.014 118.443 121.978 118.601 121.91C118.76 121.841 118.929 121.737 119.099 121.603C119.272 121.268 119.405 120.922 119.506 120.561C119.603 120.201 119.654 119.873 119.654 119.581C119.654 119.094 119.6 118.687 119.495 118.359C119.391 118.031 119.268 117.753 119.131 117.526H119.138ZM110.335 120.114C110.241 120.132 110.147 120.143 110.05 120.143C109.834 120.143 109.632 120.107 109.448 120.039C109.264 119.97 109.106 119.887 108.979 119.79C109.098 119.548 109.232 119.343 109.376 119.181C109.52 119.019 109.686 118.936 109.874 118.936C110.021 118.936 110.151 118.986 110.259 119.087C110.367 119.188 110.45 119.321 110.508 119.487C110.566 119.653 110.595 119.83 110.595 120.017C110.519 120.064 110.432 120.096 110.339 120.114H110.335Z" fill="#2369B3"/>
<path d="M129.193 117.674C128.904 117.508 128.547 117.335 128.129 117.162C127.877 117.054 127.603 116.935 127.307 116.805C127.012 116.676 126.694 116.524 126.355 116.348C126.081 116.582 125.836 116.877 125.62 117.231C125.404 117.584 125.234 117.973 125.108 118.395C124.986 118.817 124.921 119.25 124.921 119.693C124.921 119.837 124.953 119.963 125.018 120.071C124.852 120.079 124.672 120.086 124.481 120.086H124.012C123.929 119.599 123.792 119.159 123.605 118.77C123.417 118.381 123.187 118.067 122.916 117.84C122.646 117.609 122.347 117.494 122.015 117.494C121.73 117.494 121.474 117.588 121.254 117.772C121.034 117.955 120.847 118.201 120.696 118.503C120.544 118.806 120.429 119.134 120.35 119.491C120.27 119.848 120.231 120.198 120.231 120.537C120.231 121.03 120.364 121.405 120.627 121.654C120.89 121.903 121.265 122.029 121.748 122.029C122.004 122.029 122.246 122.007 122.462 121.964C122.682 121.921 122.877 121.863 123.042 121.791C123.05 121.928 123.057 122.054 123.057 122.17C122.722 122.422 122.343 122.609 121.914 122.736C121.489 122.858 120.966 122.93 120.35 122.945L119.921 123.929C120.155 124.08 120.364 124.199 120.551 124.282C120.739 124.365 120.916 124.423 121.089 124.452C121.262 124.48 121.445 124.498 121.64 124.498C122.134 124.498 122.552 124.387 122.887 124.167C123.223 123.943 123.489 123.64 123.681 123.255C123.872 122.869 123.994 122.429 124.048 121.942H124.47C125.025 121.942 125.566 121.824 126.089 121.589C126.51 121.806 127.001 121.942 127.563 122.004C128.126 122.065 128.681 122.054 129.229 121.971L129.917 120.014C129.964 119.88 130.004 119.743 130.029 119.603C130.054 119.462 130.069 119.332 130.069 119.217C130.069 118.839 129.993 118.532 129.841 118.298C129.69 118.064 129.47 117.862 129.182 117.696L129.193 117.674ZM122.383 120.345C122.235 120.36 122.091 120.371 121.95 120.371C121.748 120.371 121.582 120.342 121.46 120.288C121.334 120.23 121.272 120.115 121.272 119.938C121.272 119.805 121.298 119.671 121.345 119.531C121.391 119.39 121.456 119.271 121.543 119.174C121.629 119.077 121.723 119.026 121.831 119.026C122.033 119.026 122.221 119.141 122.39 119.376C122.559 119.61 122.696 119.913 122.797 120.288C122.671 120.309 122.534 120.331 122.386 120.345H122.383ZM126.637 119.758C126.388 119.675 126.197 119.57 126.06 119.441C125.926 119.314 125.858 119.152 125.858 118.954C125.858 118.756 125.919 118.575 126.045 118.424C126.172 118.273 126.345 118.193 126.561 118.193C126.748 118.193 126.921 118.262 127.08 118.399C127.239 118.536 127.322 118.716 127.322 118.936C127.322 119.253 127.091 119.527 126.633 119.758H126.637ZM128.475 120.017C128.273 120.003 128.053 119.985 127.812 119.956C127.924 119.783 128.003 119.61 128.05 119.43C128.097 119.25 128.122 119.069 128.122 118.885C128.122 118.839 128.122 118.795 128.115 118.752C128.107 118.709 128.104 118.666 128.097 118.622C128.479 118.781 128.753 118.961 128.922 119.17C129.092 119.379 129.167 119.668 129.142 120.039C128.897 120.039 128.677 120.028 128.475 120.014V120.017Z" fill="#2369B3"/>
<path d="M133.955 117.144C134.16 117.144 134.337 117.082 134.478 116.956C134.618 116.83 134.694 116.668 134.694 116.466C134.694 116.264 134.622 116.095 134.478 115.968C134.333 115.842 134.16 115.781 133.955 115.781C133.749 115.781 133.576 115.842 133.432 115.968C133.288 116.095 133.216 116.257 133.216 116.466C133.216 116.675 133.288 116.834 133.432 116.956C133.576 117.079 133.749 117.144 133.955 117.144Z" fill="#2369B3"/>
<path d="M137.992 122.732C137.3 122.732 136.579 122.768 135.837 122.84C135.664 123.154 135.581 123.421 135.581 123.651C135.581 123.882 135.638 124.044 135.754 124.142C135.869 124.239 136.002 124.293 136.157 124.293C136.662 124.293 137.426 124.257 138.45 124.185C138.616 123.875 138.699 123.586 138.699 123.312C138.699 122.927 138.465 122.732 137.996 122.732H137.992Z" fill="#2369B3"/>
<path d="M139.193 118.254C139.049 117.829 138.879 117.472 138.685 117.176L137.401 118.449C137.545 118.683 137.679 118.936 137.801 119.202C137.928 119.469 138.014 119.721 138.061 119.959C137.946 120.006 137.819 120.039 137.682 120.057C137.545 120.075 137.39 120.085 137.217 120.085H135.92C135.71 120.085 135.537 120.049 135.4 119.97C135.263 119.894 135.134 119.761 135.008 119.57C134.881 119.379 134.734 119.109 134.564 118.762L134.301 118.254L133.057 119.779C133.299 120.136 133.504 120.486 133.674 120.828C133.843 121.171 133.994 121.527 134.128 121.895C133.858 122.191 133.529 122.418 133.137 122.58C132.747 122.742 132.354 122.861 131.961 122.933L131.536 123.918C131.77 124.069 131.979 124.184 132.163 124.267C132.347 124.35 132.527 124.404 132.697 124.433C132.87 124.462 133.05 124.48 133.241 124.48C133.598 124.48 133.926 124.361 134.225 124.127C134.524 123.892 134.77 123.564 134.961 123.153C135.152 122.739 135.267 122.27 135.303 121.744C135.397 121.805 135.491 121.852 135.588 121.884C135.685 121.917 135.79 121.931 135.916 121.931H136.925C137.293 121.931 137.632 121.902 137.938 121.845C138.245 121.787 138.53 121.693 138.789 121.564C138.977 121.25 139.128 120.925 139.236 120.59C139.344 120.255 139.402 119.927 139.402 119.617C139.402 119.137 139.33 118.687 139.186 118.265L139.193 118.254Z" fill="#2369B3"/>
<path d="M142.016 118.254L140.772 119.779C141.01 120.136 141.215 120.486 141.385 120.828C141.558 121.171 141.709 121.528 141.839 121.895C141.569 122.191 141.237 122.418 140.848 122.58C140.458 122.743 140.069 122.862 139.676 122.934L139.247 123.918C139.481 124.069 139.69 124.185 139.874 124.268C140.058 124.35 140.238 124.405 140.408 124.433C140.581 124.462 140.761 124.48 140.952 124.48C141.241 124.48 141.511 124.401 141.763 124.242C142.016 124.084 142.239 123.864 142.43 123.579C142.625 123.294 142.773 122.963 142.884 122.584C142.993 122.202 143.047 121.791 143.047 121.351C143.047 120.868 142.96 120.371 142.791 119.862C142.618 119.354 142.358 118.817 142.012 118.258L142.016 118.254Z" fill="#2369B3"/>
<path d="M152.683 118.373C152.542 118.074 152.362 117.836 152.146 117.652C151.929 117.472 151.666 117.382 151.36 117.382C151.118 117.382 150.902 117.439 150.707 117.555C150.513 117.67 150.321 117.861 150.138 118.121C149.95 118.384 149.752 118.737 149.536 119.181C149.424 119.415 149.283 119.624 149.107 119.808C148.934 119.992 148.699 120.082 148.407 120.082H148.404C148.104 120.082 147.856 120.028 147.657 119.92L147.416 116.149L145.707 116.996L145.815 117.627C145.372 117.775 144.986 117.98 144.654 118.24C144.323 118.499 144.067 118.798 143.887 119.137C143.706 119.476 143.613 119.844 143.613 120.24C143.613 120.554 143.699 120.803 143.869 120.99C144.042 121.178 144.258 121.315 144.525 121.401C144.788 121.484 145.062 121.527 145.339 121.527C145.552 121.527 145.761 121.499 145.974 121.441C146.187 121.383 146.396 121.293 146.601 121.167C146.771 121.441 146.998 121.636 147.282 121.755C147.567 121.874 147.942 121.928 148.404 121.928H148.407C148.807 121.928 149.132 121.816 149.381 121.589C149.629 121.365 149.835 121.088 150.001 120.76L149.806 121.509C149.975 121.679 150.199 121.805 150.476 121.892C150.754 121.978 151.042 122.021 151.342 122.021C151.641 122.021 151.94 121.978 152.236 121.895C152.531 121.812 152.787 121.675 153.004 121.484C153.029 121.326 153.05 121.163 153.065 120.994C153.079 120.824 153.086 120.648 153.086 120.468C153.086 120.1 153.054 119.736 152.989 119.372C152.924 119.008 152.82 118.676 152.679 118.377L152.683 118.373ZM145.97 120.031C145.884 120.042 145.797 120.046 145.703 120.046C145.545 120.046 145.39 120.035 145.238 120.01C145.091 119.988 144.968 119.952 144.874 119.902C144.781 119.851 144.734 119.786 144.734 119.703C144.734 119.512 144.856 119.328 145.098 119.148C145.339 118.968 145.642 118.838 146.003 118.748C146.039 118.982 146.075 119.202 146.111 119.408C146.147 119.613 146.176 119.811 146.205 119.995C146.132 120.006 146.053 120.017 145.97 120.028V120.031ZM151.807 120.114C151.713 120.132 151.619 120.143 151.522 120.143C151.306 120.143 151.104 120.107 150.92 120.039C150.736 119.97 150.577 119.887 150.451 119.79C150.57 119.548 150.704 119.343 150.848 119.181C150.992 119.018 151.158 118.935 151.345 118.935C151.493 118.935 151.623 118.986 151.731 119.087C151.839 119.188 151.922 119.321 151.98 119.487C152.037 119.653 152.066 119.83 152.066 120.017C151.991 120.064 151.904 120.096 151.81 120.114H151.807Z" fill="#2369B3"/>
<path d="M156.944 116.416C157.149 116.416 157.326 116.355 157.467 116.229C157.611 116.103 157.683 115.941 157.683 115.739C157.683 115.537 157.611 115.367 157.467 115.241C157.322 115.115 157.149 115.054 156.944 115.054C156.738 115.054 156.565 115.115 156.421 115.241C156.277 115.367 156.205 115.53 156.205 115.739C156.205 115.948 156.277 116.106 156.421 116.229C156.565 116.352 156.738 116.416 156.944 116.416Z" fill="#2369B3"/>
<path d="M158.422 120.582C158.534 120.243 158.588 119.919 158.588 119.609C158.588 119.129 158.516 118.679 158.368 118.257C158.224 117.832 158.051 117.475 157.856 117.179L156.573 118.452C156.717 118.686 156.85 118.938 156.973 119.205C157.099 119.472 157.185 119.724 157.232 119.962C157.117 120.009 156.991 120.041 156.854 120.059C156.713 120.077 156.562 120.088 156.392 120.088H155.949C155.797 120.088 155.668 120.074 155.563 120.041C155.459 120.009 155.365 119.966 155.282 119.904V114.627L153.537 115.55C153.627 115.946 153.689 116.39 153.725 116.88C153.761 117.37 153.779 117.868 153.779 118.376V119.962C153.779 120.193 153.804 120.427 153.851 120.661C153.898 120.896 153.995 121.108 154.139 121.3C154.283 121.491 154.5 121.646 154.788 121.761C155.076 121.876 155.462 121.934 155.945 121.934H156.097C156.464 121.934 156.803 121.905 157.113 121.848C157.42 121.79 157.704 121.696 157.964 121.566C158.152 121.253 158.303 120.928 158.415 120.593L158.422 120.582Z" fill="#2369B3"/>
<path d="M164.886 118.254C164.741 117.829 164.572 117.472 164.377 117.176L163.094 118.449C163.238 118.683 163.372 118.936 163.494 119.202C163.617 119.469 163.703 119.721 163.75 119.959C163.635 120.006 163.509 120.039 163.372 120.057C163.235 120.075 163.08 120.085 162.907 120.085H162.207C161.998 120.085 161.825 120.049 161.688 119.97C161.551 119.894 161.421 119.761 161.295 119.57C161.169 119.379 161.021 119.109 160.852 118.762L160.589 118.254L159.345 119.779C159.586 120.136 159.792 120.486 159.961 120.828C160.131 121.171 160.282 121.527 160.415 121.895C160.145 122.191 159.817 122.418 159.424 122.58C159.035 122.742 158.642 122.861 158.249 122.933L157.823 123.918C158.058 124.069 158.267 124.184 158.451 124.267C158.635 124.35 158.815 124.404 158.984 124.433C159.157 124.462 159.338 124.48 159.529 124.48C159.886 124.48 160.214 124.361 160.513 124.127C160.812 123.892 161.057 123.564 161.248 123.153C161.439 122.739 161.555 122.27 161.591 121.744C161.684 121.805 161.778 121.852 161.875 121.884C161.969 121.913 162.077 121.931 162.204 121.931H162.615C162.982 121.931 163.321 121.902 163.628 121.845C163.934 121.787 164.219 121.693 164.478 121.564C164.666 121.25 164.817 120.925 164.929 120.59C165.041 120.255 165.095 119.927 165.095 119.617C165.095 119.137 165.023 118.687 164.878 118.265L164.886 118.254Z" fill="#2369B3"/>
<path d="M162.964 122.922C162.762 122.922 162.586 122.984 162.442 123.11C162.297 123.236 162.225 123.398 162.225 123.607C162.225 123.816 162.297 123.975 162.442 124.097C162.586 124.224 162.759 124.285 162.964 124.285C163.17 124.285 163.346 124.224 163.487 124.097C163.631 123.975 163.703 123.809 163.703 123.607C163.703 123.405 163.631 123.236 163.487 123.11C163.343 122.987 163.17 122.922 162.964 122.922Z" fill="#2369B3"/>
<defs>
<linearGradient id="paint0_linear_4253_36781" x1="46.5938" y1="28.5015" x2="113.688" y2="28.5015" gradientUnits="userSpaceOnUse">
<stop offset="0.6" stop-color="#C12890"/>
<stop offset="1" stop-color="#E091BE"/>
</linearGradient>
<linearGradient id="paint1_linear_4253_36781" x1="39.7978" y1="28.5" x2="138.343" y2="28.5" gradientUnits="userSpaceOnUse">
<stop offset="0.04" stop-color="#E091BE"/>
<stop offset="0.35" stop-color="#C12890"/>
<stop offset="0.55" stop-color="#65164C"/>
</linearGradient>
<linearGradient id="paint2_linear_4253_36781" x1="91.0446" y1="38.5726" x2="91.0446" y2="19.2978" gradientUnits="userSpaceOnUse">
<stop stop-color="#2369B3"/>
<stop offset="0.14" stop-color="#2266AE"/>
<stop offset="0.3" stop-color="#1F5FA2"/>
<stop offset="0.45" stop-color="#1B538D"/>
<stop offset="0.6" stop-color="#164270"/>
<stop offset="0.76" stop-color="#0F2C4B"/>
<stop offset="0.91" stop-color="#06111D"/>
<stop offset="1" stop-color="#010101"/>
</linearGradient>
<linearGradient id="paint3_linear_4253_36781" x1="106.61" y1="38.3307" x2="106.61" y2="19.0588" gradientUnits="userSpaceOnUse">
<stop stop-color="#2369B3"/>
<stop offset="0.14" stop-color="#2266AE"/>
<stop offset="0.3" stop-color="#1F5FA2"/>
<stop offset="0.45" stop-color="#1B538D"/>
<stop offset="0.6" stop-color="#164270"/>
<stop offset="0.76" stop-color="#0F2C4B"/>
<stop offset="0.91" stop-color="#06111D"/>
<stop offset="1" stop-color="#010101"/>
</linearGradient>
<linearGradient id="paint4_linear_4253_36781" x1="98.8432" y1="38.3307" x2="98.8432" y2="19.0588" gradientUnits="userSpaceOnUse">
<stop stop-color="#2369B3"/>
<stop offset="0.14" stop-color="#2266AE"/>
<stop offset="0.3" stop-color="#1F5FA2"/>
<stop offset="0.45" stop-color="#1B538D"/>
<stop offset="0.6" stop-color="#164270"/>
<stop offset="0.76" stop-color="#0F2C4B"/>
<stop offset="0.91" stop-color="#06111D"/>
<stop offset="1" stop-color="#010101"/>
</linearGradient>
</defs>
</svg>
