<svg width="16" height="16" viewBox="0 0 16 16" fill="none" xmlns="http://www.w3.org/2000/svg">
<path d="M3.62918 16C3.54037 16 3.46597 15.9704 3.40597 15.9111C3.34582 15.852 3.31575 15.7787 3.31575 15.6912V13.8841C2.96097 13.6896 2.65299 13.3751 2.39179 12.9407C2.1306 12.5063 2 12.0283 2 11.5068V3.73529C2 2.82912 2.39694 2.14669 3.19082 1.68801C3.98455 1.22934 5.58754 1 7.99978 1C10.3914 1 11.9893 1.23074 12.7935 1.69221C13.5978 2.15353 14 2.83456 14 3.73529V11.5068C14 12.0283 13.8694 12.5063 13.6082 12.9407C13.347 13.3751 13.039 13.6896 12.6843 13.8841V15.6912C12.6843 15.7787 12.6542 15.852 12.594 15.9111C12.534 15.9704 12.4596 16 12.3708 16H11.6405C11.5519 16 11.4775 15.9704 11.4173 15.9111C11.3573 15.852 11.3273 15.7787 11.3273 15.6912V14.4118H4.67269V15.6912C4.67269 15.7787 4.64269 15.852 4.58269 15.9111C4.52254 15.9704 4.44813 16 4.35948 16H3.62918ZM8.03157 3.44346H12.8669H3.12119H8.03157ZM11.2239 9.02941H3.16418H12.8358H11.2239ZM3.16418 7.88235H12.8358V4.59052H3.16418V7.88235ZM5.31545 12.0363C5.56664 12.0363 5.77948 11.9496 5.95395 11.7762C6.12858 11.6029 6.2159 11.3926 6.2159 11.1451C6.2159 10.8976 6.12791 10.6879 5.95194 10.516C5.77612 10.3439 5.56261 10.2579 5.31142 10.2579C5.06022 10.2579 4.84739 10.3446 4.67291 10.5179C4.49828 10.6912 4.41097 10.9015 4.41097 11.149C4.41097 11.3965 4.49896 11.6062 4.67493 11.7782C4.85075 11.9502 5.06425 12.0363 5.31545 12.0363ZM10.6886 12.0363C10.9398 12.0363 11.1526 11.9496 11.3271 11.7762C11.5017 11.6029 11.589 11.3926 11.589 11.1451C11.589 10.8976 11.501 10.6879 11.3251 10.516C11.1493 10.3439 10.9357 10.2579 10.6846 10.2579C10.4334 10.2579 10.2205 10.3446 10.046 10.5179C9.87142 10.6912 9.7841 10.9015 9.7841 11.149C9.7841 11.3965 9.87209 11.6062 10.0481 11.7782C10.2239 11.9502 10.4374 12.0363 10.6886 12.0363ZM3.12119 3.44346H12.8669C12.6028 2.91522 12.1116 2.56706 11.3936 2.39897C10.6754 2.23103 9.53843 2.14706 7.98276 2.14706C6.5144 2.14706 5.40993 2.23191 4.66933 2.40162C3.92873 2.57132 3.41269 2.9186 3.12119 3.44346ZM4.77746 13.2647H11.2302C11.6737 13.2647 12.0522 13.1092 12.3657 12.7982C12.6791 12.4871 12.8358 12.1132 12.8358 11.6765V9.02941H3.16418V11.6765C3.16418 12.1176 3.32216 12.4926 3.63813 12.8015C3.95396 13.1103 4.33373 13.2647 4.77746 13.2647Z" fill="#FCFCFD"/>
</svg>
