<svg width="76" height="18" viewBox="0 0 76 18" fill="none" xmlns="http://www.w3.org/2000/svg">
<path d="M62.4139 3.11493H62.4389C62.8668 3.11493 63.2349 2.96672 63.5429 2.6703C63.851 2.37388 64.0042 2.01751 64.0042 1.60452V1.58121C64.0042 1.16655 63.851 0.81185 63.5429 0.51543C63.2349 0.219011 62.8685 0.0708008 62.4389 0.0708008H62.4139C61.9842 0.0708008 61.6179 0.219011 61.3098 0.51543C61.0017 0.81185 60.8485 1.16822 60.8485 1.58121V1.60452C60.8485 2.01918 61.0017 2.37388 61.3098 2.6703C61.6179 2.96672 61.9842 3.11493 62.4139 3.11493Z" fill="#C12890"/>
<path d="M55.781 14.8667H59.1982V15.5545C59.1982 16.4104 58.5021 17.1065 57.6462 17.1065H54.229V16.4187C54.229 15.5628 54.9251 14.8667 55.781 14.8667Z" fill="#C12890"/>
<path d="M68.0458 3.11493H68.0708C68.4988 3.11493 68.8668 2.96672 69.1749 2.6703C69.483 2.37388 69.6362 2.01751 69.6362 1.60452V1.58121C69.6362 1.16655 69.483 0.81185 69.1749 0.51543C68.8668 0.219011 68.5005 0.0708008 68.0708 0.0708008H68.0458C67.6162 0.0708008 67.2498 0.219011 66.9418 0.51543C66.6337 0.81185 66.4805 1.16822 66.4805 1.58121V1.60452C66.4805 2.01918 66.6337 2.37388 66.9418 2.6703C67.2498 2.96672 67.6162 3.11493 68.0458 3.11493Z" fill="#C12890"/>
<path d="M73.7411 17.5912H73.7661C74.1941 17.5912 74.5621 17.443 74.8702 17.1466C75.1783 16.8502 75.3315 16.4938 75.3315 16.0808V16.0575C75.3315 15.6429 75.1783 15.2882 74.8702 14.9917C74.5621 14.6953 74.1958 14.5471 73.7661 14.5471H73.7411C73.3115 14.5471 72.9451 14.6953 72.6371 14.9917C72.329 15.2882 72.1758 15.6445 72.1758 16.0575V16.0808C72.1758 16.4955 72.329 16.8502 72.6371 17.1466C72.9451 17.443 73.3115 17.5912 73.7411 17.5912Z" fill="#C12890"/>
<path d="M71.5529 3.96094V9.4447H70.2556V3.96094H65.851V16.4539H66.627C67.4929 16.4539 68.254 16.1924 68.9134 15.6695C69.5729 15.1466 69.9908 14.4905 70.169 13.7012H72.3405C73.0117 13.7012 73.6211 13.5446 74.1657 13.2332C74.7119 12.9201 75.1482 12.4988 75.4763 11.9676C75.8043 11.4364 75.9675 10.8502 75.9675 10.2091V3.9626H71.5512L71.5529 3.96094Z" fill="#2369B3"/>
<path d="M60.2224 3.96094V9.4447H58.9284V3.96094H54.5238V9.4447H53.2299V7.45303C53.2299 6.8119 53.0717 6.23071 52.7569 5.70782C52.4405 5.18492 52.0142 4.76527 51.4763 4.4472C50.9384 4.1308 50.3423 3.96926 49.6878 3.96094H43.1483V9.52797C42.3306 9.69949 41.6545 10.1025 41.1166 10.7353C40.5787 11.3681 40.309 12.1025 40.309 12.9385V16.4539H41.0966C41.7677 16.4539 42.3772 16.2957 42.9234 15.9793C43.4697 15.6629 43.9043 15.2382 44.2274 14.707C44.4189 14.3906 44.5538 14.0559 44.632 13.6995H55.3131C55.5962 13.6995 55.8543 13.6196 56.0891 13.4597C56.3239 13.2998 56.4905 13.09 56.5871 12.8335H56.8668C56.9634 13.0917 57.1299 13.2998 57.3647 13.4597C57.5996 13.6196 57.8577 13.6995 58.1408 13.6995H61.0117C61.6828 13.6995 62.2923 13.543 62.8369 13.2315C63.3831 12.9185 63.8194 12.4972 64.1474 11.9659C64.4755 11.4347 64.6387 10.8485 64.6387 10.2074V3.96094H60.2224ZM49.7561 8.84187C49.7561 9.25652 49.6029 9.61123 49.2948 9.90765C48.9867 10.2041 48.6187 10.3523 48.1907 10.3523H48.1657C47.7378 10.3523 47.3697 10.2041 47.0617 9.90765C46.7536 9.61123 46.6004 9.25486 46.6004 8.84187V8.81856C46.6004 8.4039 46.7536 8.0492 47.0617 7.75278C47.3697 7.45636 47.7361 7.30815 48.1657 7.30815H48.1907C48.6187 7.30815 48.9867 7.45636 49.2948 7.75278C49.6029 8.0492 49.7561 8.40557 49.7561 8.81856V8.84187Z" fill="#2369B3"/>
<path d="M5.12493 3.11664H5.14991C5.57789 3.11664 5.94592 2.96843 6.25399 2.67201C6.56207 2.37559 6.71527 2.01922 6.71527 1.60623V1.58292C6.71527 1.16826 6.56207 0.813559 6.25399 0.517139C5.94592 0.22072 5.57789 0.0725098 5.14991 0.0725098H5.12493C4.69529 0.0725098 4.32893 0.22072 4.02085 0.517139C3.71278 0.813559 3.55957 1.16993 3.55957 1.58292V1.60623C3.55957 2.02089 3.71278 2.37559 4.02085 2.67201C4.32893 2.96843 4.69529 3.11664 5.12493 3.11664Z" fill="#C12890"/>
<path d="M29.6228 14.8669H33.04V15.5547C33.04 16.4107 32.3439 17.1067 31.488 17.1067H28.0708V16.419C28.0708 15.563 28.7669 14.8669 29.6228 14.8669Z" fill="#C12890"/>
<path d="M36.2707 17.5912H36.2957C36.7236 17.5912 37.0917 17.443 37.3997 17.1466C37.7078 16.8502 37.861 16.4938 37.861 16.0808V16.0575C37.861 15.6429 37.7078 15.2882 37.3997 14.9917C37.0917 14.6953 36.7253 14.5471 36.2957 14.5471H36.2707C35.841 14.5471 35.4747 14.6953 35.1666 14.9917C34.8585 15.2882 34.7053 15.6445 34.7053 16.0575V16.0808C34.7053 16.4955 34.8585 16.8502 35.1666 17.1466C35.4747 17.443 35.841 17.5912 36.2707 17.5912Z" fill="#C12890"/>
<path d="M5.77937 12.1874H4.50543V3.96094H0.0891113V12.9484C0.0891113 13.5896 0.252309 14.1741 0.580369 14.707C0.908429 15.2382 1.3464 15.6629 1.89594 15.9793C2.44548 16.2957 3.05331 16.4539 3.71609 16.4539H6.55539C7.2265 16.4539 7.83599 16.2957 8.38054 15.9793C8.92675 15.6629 9.36305 15.2382 9.69111 14.707C10.0192 14.1758 10.1824 13.5896 10.1824 12.9484V3.96094H5.7777V12.1874H5.77937Z" fill="#2369B3"/>
<path d="M34.0841 9.4447H32.7902V3.96094H28.3855V9.4447H27.0883V3.96094H22.6836V16.4539H23.4596C24.3256 16.4539 25.0866 16.1924 25.746 15.6695C26.4055 15.1466 26.8235 14.4905 27.0017 13.7012H29.1732C29.4563 13.7012 29.7144 13.6212 29.9492 13.4614C30.184 13.3015 30.3505 13.0917 30.4471 12.8352H30.7269C30.8235 13.0933 30.99 13.3015 31.2248 13.4614C31.4596 13.6212 31.7177 13.7012 32.0008 13.7012H34.8718C35.5429 13.7012 36.1524 13.5446 36.6969 13.2332C37.2431 12.9201 37.6794 12.4988 38.0075 11.9676C38.3356 11.4364 38.4987 10.8502 38.4987 10.2091V3.9626H34.0824V9.44637L34.0841 9.4447Z" fill="#2369B3"/>
<path d="M14.8801 3.96089C14.2406 3.96089 13.6595 4.1191 13.1332 4.4355C12.607 4.7519 12.1874 5.16989 11.8709 5.68945C11.5562 6.20902 11.393 6.78188 11.3864 7.40636V10.254C11.3864 10.8868 11.5496 11.4646 11.8776 11.9875C12.2057 12.5104 12.6436 12.9268 13.1932 13.2348C13.7427 13.5429 14.3456 13.6978 15.0017 13.6978H17.065V16.4522H17.8543C18.5254 16.4522 19.1349 16.2939 19.6794 15.9775C20.2257 15.6611 20.6603 15.2365 20.9834 14.7053C21.3064 14.174 21.468 13.5879 21.468 12.9467V3.95923H14.8801V3.96089ZM18.0042 8.84349C18.0042 9.25815 17.851 9.61285 17.5429 9.90927C17.2348 10.2057 16.8668 10.3539 16.4388 10.3539H16.4138C15.9842 10.3539 15.6178 10.2057 15.3098 9.90927C15.0017 9.61285 14.8485 9.25648 14.8485 8.84349V8.82018C14.8485 8.40552 15.0017 8.05082 15.3098 7.7544C15.6178 7.45798 15.9842 7.30977 16.4138 7.30977H16.4388C16.8668 7.30977 17.2348 7.45798 17.5429 7.7544C17.851 8.05082 18.0042 8.40719 18.0042 8.82018V8.84349Z" fill="#2369B3"/>
</svg>
