<svg width="16" height="16" viewBox="0 0 16 16" fill="none" xmlns="http://www.w3.org/2000/svg">
<rect width="16" height="16" fill="white" fill-opacity="0.01"/>
<path fill-rule="evenodd" clip-rule="evenodd" d="M2.13333 3.20046C1.54423 3.20046 1.06667 3.67802 1.06667 4.26712V11.7338C1.06667 12.3229 1.54423 12.8005 2.13333 12.8005H13.8667C14.4558 12.8005 14.9333 12.3229 14.9333 11.7338V4.26712C14.9333 3.67802 14.4558 3.20046 13.8667 3.20046H2.13333ZM0 4.26712C0 3.08891 0.955127 2.13379 2.13333 2.13379H13.8667C15.0449 2.13379 16 3.08891 16 4.26712V11.7338C16 12.912 15.0449 13.8671 13.8667 13.8671H2.13333C0.955127 13.8671 0 12.912 0 11.7338V4.26712ZM2.13333 4.53379C2.13333 4.38651 2.25273 4.26712 2.4 4.26712H5.06667C5.21394 4.26712 5.33333 4.38651 5.33333 4.53379V6.13863C5.33333 6.28591 5.21394 6.4053 5.06667 6.4053H2.4C2.25273 6.4053 2.13333 6.28591 2.13333 6.13863V4.53379ZM12.9077 8.09028C12.9077 9.62257 11.6656 10.8648 10.1333 10.8648C8.60102 10.8648 7.35886 9.62257 7.35886 8.09028C7.35886 6.55799 8.60102 5.31582 10.1333 5.31582C11.6656 5.31582 12.9077 6.55799 12.9077 8.09028ZM13.9744 8.09028C13.9744 10.2117 12.2547 11.9314 10.1333 11.9314C8.01192 11.9314 6.29219 10.2117 6.29219 8.09028C6.29219 5.96888 8.01192 4.24915 10.1333 4.24915C12.2547 4.24915 13.9744 5.96888 13.9744 8.09028Z" fill="#00509D"/>
</svg>
