<svg width="16" height="16" viewBox="0 0 16 16" fill="none" xmlns="http://www.w3.org/2000/svg">
<path d="M1.53443 14.1194V15.6343C1.53443 15.7379 1.50051 15.8247 1.43266 15.8947C1.36464 15.9649 1.28042 16 1.18 16H0.35443C0.254008 16 0.169873 15.9649 0.102025 15.8947C0.0340084 15.8247 0 15.7379 0 15.6343V7.82672L1.9162 2.91418C2.00852 2.62216 2.18143 2.39684 2.43494 2.23821C2.68844 2.0794 2.97063 2 3.28152 2H12.7575C13.0586 2 13.332 2.08053 13.5777 2.2416C13.8233 2.40267 13.992 2.62687 14.0838 2.91418L16 7.82672V15.6343C16 15.7379 15.966 15.8247 15.898 15.8947C15.8301 15.9649 15.746 16 15.6456 16H14.82C14.7196 16 14.6354 15.9649 14.5673 15.8947C14.4995 15.8247 14.4656 15.7379 14.4656 15.6343V14.1194H1.53443ZM1.75468 7.09537H14.2453L12.8159 3.35821H3.18405L1.75468 7.09537ZM3.71013 11.6603C3.99418 11.6603 4.23494 11.5576 4.4324 11.3523C4.6297 11.1472 4.72835 10.8981 4.72835 10.605C4.72835 10.312 4.62895 10.0636 4.43013 9.85985C4.23114 9.65629 3.98962 9.55452 3.70557 9.55452C3.42152 9.55452 3.18084 9.65708 2.98354 9.8622C2.78608 10.0675 2.68734 10.3167 2.68734 10.6097C2.68734 10.9028 2.78684 11.1511 2.98582 11.3547C3.18464 11.5584 3.42608 11.6603 3.71013 11.6603ZM12.2944 11.6603C12.5785 11.6603 12.8192 11.5576 13.0165 11.3523C13.2139 11.1472 13.3127 10.8981 13.3127 10.605C13.3127 10.312 13.2132 10.0636 13.0142 9.85985C12.8154 9.65629 12.5739 9.55452 12.2899 9.55452C12.0058 9.55452 11.7651 9.65708 11.5676 9.8622C11.3703 10.0675 11.2716 10.3167 11.2716 10.6097C11.2716 10.9028 11.3711 11.1511 11.5699 11.3547C11.7689 11.5584 12.0104 11.6603 12.2944 11.6603ZM1.31646 12.7612H14.6835V8.45358H1.31646V12.7612Z" fill="#FCFCFD"/>
</svg>
