<svg width="16" height="16" viewBox="0 0 16 16" fill="none" xmlns="http://www.w3.org/2000/svg">
<rect width="16" height="16" fill="white" fill-opacity="0.01"/>
<path fill-rule="evenodd" clip-rule="evenodd" d="M7.9999 0.933594C4.09837 0.933594 0.935547 4.09641 0.935547 7.99795C0.935547 11.8994 4.09837 15.0623 7.9999 15.0623C11.9014 15.0623 15.0642 11.8994 15.0642 7.99795C15.0642 4.09641 11.9014 0.933594 7.9999 0.933594ZM1.94889 7.99795C1.94889 4.65606 4.65802 1.94692 7.9999 1.94692C11.3418 1.94692 14.0509 4.65606 14.0509 7.99795C14.0509 11.3398 11.3418 14.049 7.9999 14.049C4.65802 14.049 1.94889 11.3398 1.94889 7.99795ZM10.8362 5.905C11.0057 5.66412 10.9478 5.33142 10.707 5.16191C10.4661 4.99239 10.1334 5.05026 9.96386 5.29115L6.95442 9.56772L5.71393 8.30428C5.50756 8.0941 5.16989 8.091 4.95971 8.29736C4.74953 8.50372 4.74643 8.8414 4.9528 9.05157L6.64169 10.7717C6.75258 10.8847 6.90791 10.9425 7.06567 10.9296C7.22343 10.9168 7.36732 10.8345 7.45841 10.705L10.8362 5.905Z" fill="#62636C"/>
</svg>
