<svg width="16" height="16" viewBox="0 0 16 16" fill="none" xmlns="http://www.w3.org/2000/svg">
<rect width="16" height="16" fill="white" fill-opacity="0.01"/>
<path fill-rule="evenodd" clip-rule="evenodd" d="M12.5666 4.30032C12.8062 4.0608 12.8062 3.67246 12.5666 3.43294C12.3271 3.19342 11.9387 3.19342 11.6993 3.43294L7.9996 7.13258L4.29996 3.43294C4.06043 3.19342 3.67209 3.19342 3.43257 3.43294C3.19305 3.67246 3.19305 4.0608 3.43257 4.30032L7.13222 7.99997L3.43257 11.6996C3.19305 11.9392 3.19305 12.3274 3.43257 12.567C3.67209 12.8065 4.06043 12.8065 4.29996 12.567L7.9996 8.86735L11.6993 12.567C11.9387 12.8065 12.3271 12.8065 12.5666 12.567C12.8062 12.3274 12.8062 11.9392 12.5666 11.6996L8.86698 7.99997L12.5666 4.30032Z" fill="#FCFCFD"/>
</svg>
