<svg width="32" height="32" viewBox="0 0 32 32" fill="none" xmlns="http://www.w3.org/2000/svg">
<rect width="16" height="16" transform="translate(8 8)" fill="white" fill-opacity="0.01"/>
<path fill-rule="evenodd" clip-rule="evenodd" d="M21.3333 11.1995L10.6667 11.1995C9.78301 11.1995 9.06667 11.9159 9.06667 12.7995V18.1328C9.06667 19.0165 9.78301 19.7328 10.6667 19.7328H16C16.1415 19.7328 16.2771 19.789 16.3772 19.8891L18.6667 22.1786V20.2661C18.6667 19.9716 18.9055 19.7328 19.2 19.7328H21.3333C22.217 19.7328 22.9333 19.0165 22.9333 18.1328V12.7995C22.9333 11.9158 22.217 11.1995 21.3333 11.1995ZM10.6667 10.1328L21.3333 10.1328C22.8061 10.1328 24 11.3267 24 12.7995V18.1328C24 19.6056 22.8061 20.7995 21.3333 20.7995H19.7333V23.4661C19.7333 23.6818 19.6034 23.8763 19.4041 23.9588C19.2048 24.0414 18.9754 23.9957 18.8228 23.8433L15.7791 20.7995H10.6667C9.19391 20.7995 8 19.6056 8 18.1328V12.7995C8 11.3267 9.1939 10.1328 10.6667 10.1328Z" fill="#00509D"/>
</svg>
