<svg width="16" height="16" viewBox="0 0 16 16" fill="none" xmlns="http://www.w3.org/2000/svg">
<path d="M3.54893 1H12.0299V9.65343L6.72136 15L6.41379 14.8849C6.20369 14.7377 6.04285 14.5541 5.93126 14.3343C5.81981 14.1144 5.78997 13.886 5.84175 13.6491L5.86117 13.6262L6.56913 9.65343H1.24874C0.905178 9.65343 0.611197 9.52966 0.366796 9.28211C0.122265 9.03444 0 8.73667 0 8.38882V7.57027C0 7.47547 0.00724924 7.39051 0.0217476 7.31538C0.0361166 7.24025 0.0627185 7.16184 0.101553 7.08016L2.30777 1.81993C2.40628 1.5678 2.57029 1.36811 2.79981 1.22087C3.02932 1.07362 3.27903 1 3.54893 1ZM11.0202 2.0227H3.54893C3.49417 2.0227 3.43819 2.03778 3.38097 2.06794C3.32362 2.09823 3.28 2.1487 3.2501 2.21938L1.00971 7.50989V8.38882C1.00971 8.45936 1.0321 8.51732 1.07689 8.56268C1.12168 8.60818 1.17896 8.63093 1.24874 8.63093H7.7699L6.8932 13.3949L11.0202 9.23V2.0227ZM12.0299 9.65343V8.63093H14.9903V2.0227H12.0299V1H16V9.65343H12.0299Z" fill="#00509D"/>
</svg>
