<svg width="16" height="16" viewBox="0 0 16 16" fill="none" xmlns="http://www.w3.org/2000/svg">
<rect width="16" height="16" fill="white" fill-opacity="0.01"/>
<path fill-rule="evenodd" clip-rule="evenodd" d="M7.99953 1.12109C8.26463 1.12109 8.47953 1.33599 8.47953 1.60109V8.9756L10.8602 6.59501C11.0476 6.40756 11.3515 6.40756 11.5389 6.59501C11.7264 6.78247 11.7264 7.08638 11.5389 7.27384L8.33895 10.4738C8.15149 10.6613 7.84758 10.6613 7.66012 10.4738L4.46012 7.27384C4.27266 7.08638 4.27266 6.78247 4.46012 6.59501C4.64758 6.40756 4.95149 6.40756 5.13895 6.59501L7.51953 8.9756V1.60109C7.51953 1.33599 7.73443 1.12109 7.99953 1.12109ZM2.66615 10.6678C2.9607 10.6678 3.19948 10.9066 3.19948 11.2011V12.8011C3.19948 13.3919 3.67484 13.8678 4.26225 13.8678H11.7341C12.3226 13.8678 12.7995 13.3908 12.7995 12.8011V11.2011C12.7995 10.9066 13.0383 10.6678 13.3328 10.6678C13.6273 10.6678 13.8661 10.9066 13.8661 11.2011V12.8011C13.8661 13.9788 12.9128 14.9344 11.7341 14.9344H4.26225C3.08235 14.9344 2.13281 13.9776 2.13281 12.8011V11.2011C2.13281 10.9066 2.3716 10.6678 2.66615 10.6678Z" fill="#00509D"/>
</svg>
