<svg width="16" height="16" viewBox="0 0 16 16" fill="none" xmlns="http://www.w3.org/2000/svg">
<rect width="16" height="16" fill="white" fill-opacity="0.01"/>
<path fill-rule="evenodd" clip-rule="evenodd" d="M3.19948 1.06641C2.61037 1.06641 2.13281 1.54397 2.13281 2.13307V13.8664C2.13281 14.4555 2.61038 14.9331 3.19948 14.9331H11.1995C11.494 14.9331 11.7328 14.6942 11.7328 14.3997C11.7328 14.1052 11.494 13.8664 11.1995 13.8664H3.19948V2.13307H11.1995C11.494 2.13307 11.7328 1.89429 11.7328 1.59974C11.7328 1.30519 11.494 1.06641 11.1995 1.06641H3.19948ZM13.4433 5.22262C13.235 5.01433 12.8973 5.01433 12.689 5.22262C12.4808 5.4309 12.4808 5.76858 12.689 5.97686L14.1786 7.46641H6.93281C6.63826 7.46641 6.39948 7.70519 6.39948 7.99974C6.39948 8.29429 6.63826 8.53307 6.93281 8.53307H14.1786L12.689 10.0226C12.4808 10.2309 12.4808 10.5686 12.689 10.7769C12.8973 10.9851 13.235 10.9851 13.4433 10.7769L15.8433 8.37686C16.0515 8.16858 16.0515 7.8309 15.8433 7.62262L13.4433 5.22262Z" fill="#A10075"/>
</svg>
