<svg width="16" height="16" viewBox="0 0 16 16" fill="none" xmlns="http://www.w3.org/2000/svg">
<path d="M8.20194 13.5984C8.03294 13.5984 7.8901 13.5409 7.77344 13.4259C7.65677 13.3109 7.59844 13.1684 7.59844 12.9984V10.1984C7.59844 10.0284 7.6556 9.88594 7.76994 9.77094C7.88427 9.65594 8.02594 9.59844 8.19494 9.59844C8.36394 9.59844 8.50677 9.65594 8.62344 9.77094C8.7401 9.88594 8.79844 10.0284 8.79844 10.1984V10.9984H12.9938C13.1635 10.9984 13.3068 11.0556 13.4234 11.1699C13.5401 11.2843 13.5984 11.4259 13.5984 11.5949C13.5984 11.7639 13.5409 11.9068 13.4259 12.0234C13.3109 12.1401 13.1684 12.1984 12.9984 12.1984H8.79844V12.9984C8.79844 13.1684 8.74127 13.3109 8.62694 13.4259C8.5126 13.5409 8.37094 13.5984 8.20194 13.5984ZM2.99844 12.1984C2.82844 12.1984 2.68594 12.1413 2.57094 12.0269C2.45594 11.9126 2.39844 11.7709 2.39844 11.6019C2.39844 11.4329 2.45594 11.2901 2.57094 11.1734C2.68594 11.0568 2.82844 10.9984 2.99844 10.9984H5.79844C5.96844 10.9984 6.11094 11.0556 6.22594 11.1699C6.34094 11.2843 6.39844 11.4259 6.39844 11.5949C6.39844 11.7639 6.34094 11.9068 6.22594 12.0234C6.11094 12.1401 5.96844 12.1984 5.79844 12.1984H2.99844ZM5.40194 9.99844C5.23294 9.99844 5.0901 9.94094 4.97344 9.82594C4.85677 9.71094 4.79844 9.56844 4.79844 9.39844V8.59844H3.00277C2.83322 8.59844 2.6901 8.54127 2.57344 8.42694C2.45677 8.3126 2.39844 8.17094 2.39844 8.00194C2.39844 7.83294 2.45594 7.6901 2.57094 7.57344C2.68594 7.45677 2.82844 7.39844 2.99844 7.39844H4.79844V6.59844C4.79844 6.42844 4.8556 6.28594 4.96994 6.17094C5.08427 6.05594 5.22594 5.99844 5.39494 5.99844C5.56394 5.99844 5.70677 6.05594 5.82344 6.17094C5.9401 6.28594 5.99844 6.42844 5.99844 6.59844V9.39844C5.99844 9.56844 5.94127 9.71094 5.82694 9.82594C5.7126 9.94094 5.57094 9.99844 5.40194 9.99844ZM7.79844 8.59844C7.62844 8.59844 7.48594 8.54127 7.37094 8.42694C7.25594 8.3126 7.19844 8.17094 7.19844 8.00194C7.19844 7.83294 7.25594 7.6901 7.37094 7.57344C7.48594 7.45677 7.62844 7.39844 7.79844 7.39844H12.9984C13.1684 7.39844 13.3109 7.4556 13.4259 7.56994C13.5409 7.68427 13.5984 7.82594 13.5984 7.99494C13.5984 8.16394 13.5409 8.30677 13.4259 8.42344C13.3109 8.5401 13.1684 8.59844 12.9984 8.59844H7.79844ZM10.2019 6.39844C10.0329 6.39844 9.8901 6.34094 9.77344 6.22594C9.65677 6.11094 9.59844 5.96844 9.59844 5.79844V2.99844C9.59844 2.82844 9.6556 2.68594 9.76994 2.57094C9.88427 2.45594 10.0259 2.39844 10.1949 2.39844C10.3639 2.39844 10.5068 2.45594 10.6234 2.57094C10.7401 2.68594 10.7984 2.82844 10.7984 2.99844V3.79844H12.9984C13.1684 3.79844 13.3109 3.8556 13.4259 3.96994C13.5409 4.08427 13.5984 4.22594 13.5984 4.39494C13.5984 4.56394 13.5409 4.70677 13.4259 4.82344C13.3109 4.9401 13.1684 4.99844 12.9984 4.99844H10.7984V5.79844C10.7984 5.96844 10.7413 6.11094 10.6269 6.22594C10.5126 6.34094 10.3709 6.39844 10.2019 6.39844ZM2.99844 4.99844C2.82844 4.99844 2.68594 4.94127 2.57094 4.82694C2.45594 4.7126 2.39844 4.57094 2.39844 4.40194C2.39844 4.23294 2.45594 4.0901 2.57094 3.97344C2.68594 3.85677 2.82844 3.79844 2.99844 3.79844H8.19844C8.36844 3.79844 8.51094 3.8556 8.62594 3.96994C8.74094 4.08427 8.79844 4.22594 8.79844 4.39494C8.79844 4.56394 8.74094 4.70677 8.62594 4.82344C8.51094 4.9401 8.36844 4.99844 8.19844 4.99844H2.99844Z" fill="#FCFCFD"/>
</svg>
