<svg width="15" height="16" viewBox="0 0 15 16" fill="none" xmlns="http://www.w3.org/2000/svg">
<path fill-rule="evenodd" clip-rule="evenodd" d="M7.93545 0.935669C4.03391 0.935669 0.871094 4.09849 0.871094 8.00003C0.871094 11.9015 4.03391 15.0644 7.93545 15.0644C11.837 15.0644 14.9998 11.9015 14.9998 8.00003C14.9998 4.09849 11.837 0.935669 7.93545 0.935669ZM1.88443 8.00003C1.88443 4.65814 4.59356 1.949 7.93545 1.949C11.2773 1.949 13.9864 4.65814 13.9864 8.00003C13.9864 11.3419 11.2773 14.051 7.93545 14.051C4.59356 14.051 1.88443 11.3419 1.88443 8.00003ZM10.7717 5.90708C10.9412 5.66619 10.8834 5.3335 10.6425 5.16398C10.4016 4.99447 10.0689 5.05234 9.89941 5.29322L6.88997 9.5698L5.64948 8.30635C5.44311 8.09617 5.10543 8.09307 4.89526 8.29944C4.68507 8.5058 4.68198 8.84347 4.88835 9.05365L6.57723 10.7738C6.68812 10.8868 6.84346 10.9446 7.00122 10.9317C7.15898 10.9189 7.30286 10.8365 7.39396 10.707L10.7717 5.90708Z" fill="#62636C"/>
</svg>
