<svg width="16" height="16" viewBox="0 0 16 16" fill="none" xmlns="http://www.w3.org/2000/svg">
<path d="M4.27681 16L6.36927 5.72306L4.13708 6.65941V8.84134H3V5.90799L6.77621 4.36257C6.92199 4.30582 7.05298 4.26191 7.16916 4.23084C7.2852 4.19977 7.40037 4.17608 7.51466 4.15977C7.87692 4.14331 8.19261 4.20985 8.46172 4.35938C8.73083 4.50891 8.96466 4.71739 9.16321 4.98482L9.22532 5.04845C9.61674 5.63779 10.0258 6.2233 10.4525 6.80497C10.8792 7.38665 11.7284 7.69388 13 7.72665V8.83325C12.0749 8.78955 11.254 8.57838 10.5373 8.19972C9.82083 7.82106 9.26854 7.28465 8.88047 6.59046L8.29531 9.65512L9.85115 11.2593V16H8.71407V11.6947L6.81492 10.0856L5.35836 16H4.27681ZM9.02021 3.31343C8.54365 3.31343 8.14079 3.15325 7.81162 2.83291C7.48244 2.51256 7.31786 2.12049 7.31786 1.65671C7.31786 1.19293 7.48244 0.800868 7.81162 0.48052C8.14079 0.160173 8.54365 0 9.02021 0C9.49676 0 9.89962 0.160173 10.2288 0.48052C10.558 0.800868 10.7226 1.19293 10.7226 1.65671C10.7226 2.12049 10.558 2.51256 10.2288 2.83291C9.89962 3.15325 9.49676 3.31343 9.02021 3.31343Z" fill="#FCFCFD"/>
</svg>
