<svg width="16" height="16" viewBox="0 0 16 16" fill="none" xmlns="http://www.w3.org/2000/svg">
<rect width="16" height="16" fill="white" fill-opacity="0.01"/>
<path fill-rule="evenodd" clip-rule="evenodd" d="M2.66641 1.06665H13.3331C14.2167 1.06665 14.9331 1.78299 14.9331 2.66665V13.3333C14.9331 14.2169 14.2167 14.9333 13.3331 14.9333H2.66641C1.78275 14.9333 1.06641 14.2169 1.06641 13.3333V2.66665C1.06641 1.78299 1.78275 1.06665 2.66641 1.06665ZM2.66641 2.13332C2.37186 2.13332 2.13307 2.3721 2.13307 2.66665V8.92116L3.92699 7.12724C4.01904 7.03519 4.14451 6.98449 4.27466 6.98673C4.40481 6.98895 4.52847 7.04395 4.61729 7.13911L8.39819 11.1894L11.3937 8.1939C11.5811 8.00646 11.8851 8.00646 12.0725 8.1939L13.8664 9.98782V2.66665C13.8664 2.3721 13.6276 2.13332 13.3331 2.13332H2.66641ZM2.13307 13.3333V10.2788L4.25453 8.15735L8.03291 12.2049L9.53695 13.8667H2.66641C2.37186 13.8667 2.13307 13.6278 2.13307 13.3333ZM13.3331 13.8667H10.8317L9.04866 11.8965L11.7331 9.21214L13.8664 11.3455V13.3333C13.8664 13.6278 13.6276 13.8667 13.3331 13.8667ZM7.09224 5.86665C7.09224 5.36546 7.49855 4.95915 7.99974 4.95915C8.50093 4.95915 8.90724 5.36546 8.90724 5.86665C8.90724 6.36785 8.50093 6.77415 7.99974 6.77415C7.49855 6.77415 7.09224 6.36785 7.09224 5.86665ZM7.99974 3.99915C6.96835 3.99915 6.13224 4.83526 6.13224 5.86665C6.13224 6.89804 6.96835 7.73415 7.99974 7.73415C9.03113 7.73415 9.86724 6.89804 9.86724 5.86665C9.86724 4.83526 9.03113 3.99915 7.99974 3.99915Z" fill="#00509D"/>
</svg>
