<svg width="16" height="16" viewBox="0 0 16 16" fill="none" xmlns="http://www.w3.org/2000/svg">
<rect width="16" height="16" fill="white" fill-opacity="0.01"/>
<path fill-rule="evenodd" clip-rule="evenodd" d="M8.27102 0.874954C8.10366 0.776057 7.89574 0.776057 7.72837 0.874954L1.86171 4.34162C1.69933 4.43757 1.5997 4.61216 1.5997 4.80078C1.5997 4.9894 1.69933 5.16399 1.86171 5.25994L7.72837 8.7266C7.89574 8.82551 8.10366 8.82551 8.27102 8.7266L14.1377 5.25994C14.3001 5.16399 14.3997 4.9894 14.3997 4.80078C14.3997 4.61216 14.3001 4.43757 14.1377 4.34162L8.27102 0.874954ZM7.9997 7.64796L3.1814 4.80078L7.9997 1.9536L12.818 4.80078L7.9997 7.64796ZM1.67388 7.99613C1.82372 7.74254 2.15077 7.65844 2.40435 7.80829L7.9997 11.1146L13.595 7.80829C13.8486 7.65844 14.1756 7.74254 14.3255 7.99613C14.4754 8.24971 14.3913 8.57676 14.1377 8.7266L8.27102 12.1933C8.10366 12.2922 7.89574 12.2922 7.72837 12.1933L1.86171 8.7266C1.60813 8.57676 1.52402 8.24971 1.67388 7.99613ZM1.67387 11.1961C1.82372 10.9425 2.15076 10.8585 2.40435 11.0082L7.9997 14.3146L13.595 11.0082C13.8486 10.8585 14.1756 10.9425 14.3255 11.1961C14.4754 11.4497 14.3913 11.7768 14.1377 11.9266L8.27102 15.3933C8.10366 15.4922 7.89574 15.4922 7.72837 15.3933L1.86171 11.9266C1.60812 11.7768 1.52402 11.4497 1.67387 11.1961Z" fill="#62636C"/>
</svg>
