<svg width="16" height="16" viewBox="0 0 16 16" fill="none" xmlns="http://www.w3.org/2000/svg">
<path d="M14.0008 5.5987C14.3008 5.5987 14.5758 5.72092 14.8258 5.96536C15.0758 6.20981 15.2008 6.48759 15.2008 6.7987V7.7487C15.2008 7.83759 15.1924 7.91814 15.1758 7.99037C15.1591 8.06259 15.1341 8.13759 15.1008 8.21536L13.1174 12.8654C13.0286 13.0876 12.8841 13.2654 12.6841 13.3987C12.4841 13.532 12.2563 13.5987 12.0008 13.5987H5.60078C5.26745 13.5987 4.98411 13.4848 4.75078 13.257C4.51745 13.0293 4.40078 12.7431 4.40078 12.3987V6.0987C4.40078 5.93203 4.43411 5.7737 4.50078 5.6237C4.56745 5.4737 4.65634 5.34314 4.76745 5.23203L8.11745 1.88203C8.31745 1.68203 8.56189 1.55425 8.85078 1.4987C9.13967 1.44314 9.38411 1.47648 9.58411 1.5987C9.83967 1.74314 10.0036 1.95425 10.0758 2.23203C10.148 2.50981 10.1563 2.78203 10.1008 3.0487L9.60078 5.5987H14.0008ZM2.00078 13.5987C1.67856 13.5987 1.398 13.4793 1.15911 13.2404C0.920226 13.0015 0.800781 12.7209 0.800781 12.3987V6.7987C0.800781 6.47648 0.920226 6.19592 1.15911 5.95703C1.398 5.71814 1.67856 5.5987 2.00078 5.5987C2.323 5.5987 2.60356 5.71814 2.84245 5.95703C3.08134 6.19592 3.20078 6.47648 3.20078 6.7987V12.3987C3.20078 12.7209 3.08134 13.0015 2.84245 13.2404C2.60356 13.4793 2.323 13.5987 2.00078 13.5987Z" fill="#105FAE"/>
</svg>
