<svg width="16" height="16" viewBox="0 0 16 16" fill="none" xmlns="http://www.w3.org/2000/svg">
<rect width="16" height="16" fill="white" fill-opacity="0.01"/>
<path fill-rule="evenodd" clip-rule="evenodd" d="M1.60078 5.6C2.04261 5.6 2.40078 5.24182 2.40078 4.8C2.40078 4.35818 2.04261 4 1.60078 4C1.15896 4 0.800781 4.35818 0.800781 4.8C0.800781 5.24182 1.15896 5.6 1.60078 5.6ZM4.26745 4.8C4.26745 4.50545 4.50623 4.26667 4.80078 4.26667H14.4008C14.6953 4.26667 14.9341 4.50545 14.9341 4.8C14.9341 5.09455 14.6953 5.33333 14.4008 5.33333H4.80078C4.50623 5.33333 4.26745 5.09455 4.26745 4.8ZM4.80078 7.46667C4.50623 7.46667 4.26745 7.70545 4.26745 8C4.26745 8.29455 4.50623 8.53333 4.80078 8.53333H14.4008C14.6953 8.53333 14.9341 8.29455 14.9341 8C14.9341 7.70545 14.6953 7.46667 14.4008 7.46667H4.80078ZM4.80078 10.6667C4.50623 10.6667 4.26745 10.9055 4.26745 11.2C4.26745 11.4945 4.50623 11.7333 4.80078 11.7333H14.4008C14.6953 11.7333 14.9341 11.4945 14.9341 11.2C14.9341 10.9055 14.6953 10.6667 14.4008 10.6667H4.80078ZM2.40078 8C2.40078 8.44182 2.04261 8.8 1.60078 8.8C1.15896 8.8 0.800781 8.44182 0.800781 8C0.800781 7.55818 1.15896 7.2 1.60078 7.2C2.04261 7.2 2.40078 7.55818 2.40078 8ZM1.60078 12C2.04261 12 2.40078 11.6418 2.40078 11.2C2.40078 10.7582 2.04261 10.4 1.60078 10.4C1.15896 10.4 0.800781 10.7582 0.800781 11.2C0.800781 11.6418 1.15896 12 1.60078 12Z" fill="#62636C"/>
</svg>
