<svg width="16" height="16" viewBox="0 0 16 16" fill="none" xmlns="http://www.w3.org/2000/svg">
<rect width="16" height="16" fill="white" fill-opacity="0.01"/>
<path fill-rule="evenodd" clip-rule="evenodd" d="M8.00013 0.933594C5.86464 0.933594 4.13347 2.66476 4.13347 4.80026C4.13347 6.56333 5.31346 8.0508 6.92678 8.51601C5.65315 8.67121 4.56074 9.12169 3.73781 9.93271C2.69044 10.965 2.16016 12.5016 2.16016 14.5068C2.16016 14.7867 2.387 15.0135 2.66682 15.0135C2.94665 15.0135 3.17349 14.7867 3.17349 14.5068C3.17349 12.6722 3.65652 11.4356 4.44911 10.6544C5.24319 9.87187 6.42866 9.46692 8.00008 9.46692C9.57152 9.46692 10.757 9.87187 11.5512 10.6545C12.3437 11.4356 12.8268 12.6722 12.8268 14.5068C12.8268 14.7867 13.0536 15.0135 13.3335 15.0135C13.6133 15.0136 13.8401 14.7867 13.8401 14.5069C13.8401 12.5016 13.3098 10.965 12.2624 9.9327C11.4395 9.1217 10.3471 8.67123 9.07347 8.51602C10.6867 8.05082 11.8668 6.56334 11.8668 4.80026C11.8668 2.66476 10.1356 0.933594 8.00013 0.933594ZM5.1468 4.80026C5.1468 3.22441 6.42428 1.94693 8.00013 1.94693C9.57599 1.94693 10.8535 3.22441 10.8535 4.80026C10.8535 6.37611 9.57599 7.65359 8.00013 7.65359C6.42428 7.65359 5.1468 6.37611 5.1468 4.80026Z" fill="#62636C"/>
</svg>
