<svg width="16" height="16" viewBox="0 0 16 16" fill="none" xmlns="http://www.w3.org/2000/svg">
<rect width="16" height="16" fill="white" fill-opacity="0.01"/>
<path fill-rule="evenodd" clip-rule="evenodd" d="M10.6661 6.93281C10.6661 8.99468 8.99468 10.6661 6.93281 10.6661C4.87095 10.6661 3.19948 8.99468 3.19948 6.93281C3.19948 4.87095 4.87095 3.19948 6.93281 3.19948C8.99468 3.19948 10.6661 4.87095 10.6661 6.93281ZM9.92891 10.6831C9.10776 11.3401 8.06616 11.7328 6.93281 11.7328C4.28185 11.7328 2.13281 9.58378 2.13281 6.93281C2.13281 4.28185 4.28185 2.13281 6.93281 2.13281C9.58378 2.13281 11.7328 4.28185 11.7328 6.93281C11.7328 8.06616 11.3401 9.10776 10.6831 9.92891L13.71 12.9556C13.9182 13.164 13.9182 13.5017 13.71 13.71C13.5017 13.9182 13.164 13.9182 12.9556 13.71L9.92891 10.6831Z" fill="#FCFCFD"/>
</svg>
