<svg width="16" height="16" viewBox="0 0 16 16" fill="none" xmlns="http://www.w3.org/2000/svg">
<path d="M2.65797 15.9917H1.20415V14.8494H2.65797C3.16084 14.8494 3.60884 14.7156 4.00195 14.4481C4.39507 14.1805 4.77146 13.9076 5.13111 13.6294C5.58023 13.9448 6.032 14.2242 6.48644 14.4676C6.94087 14.7109 7.4427 14.8325 7.99191 14.8325C8.54113 14.8325 9.04295 14.7109 9.49739 14.4676C9.95196 14.2242 10.4037 13.9448 10.8527 13.6294C11.2178 13.9076 11.5942 14.1805 11.9819 14.4481C12.3695 14.7156 12.8149 14.8494 13.3179 14.8494H14.812V15.9917H13.3179C12.8956 15.9917 12.5184 15.9294 12.1862 15.8049C11.854 15.6805 11.4014 15.4323 10.8286 15.0605C10.2395 15.421 9.74113 15.6678 9.33359 15.8008C8.92592 15.9336 8.47869 16 7.99191 16C7.50514 16 7.05658 15.9336 6.64625 15.8008C6.23605 15.6678 5.7364 15.421 5.14728 15.0605C4.58841 15.4177 4.13586 15.6622 3.78965 15.794C3.44343 15.9258 3.0662 15.9917 2.65797 15.9917ZM8.0001 13.082C7.74587 13.082 7.48092 13.0659 7.20526 13.0339C6.9296 13.0016 6.52256 12.6943 5.98412 12.1119L5.22813 11.3651L4.57714 12.046C4.24856 12.4178 3.93006 12.682 3.62165 12.8386C3.31309 12.9951 2.9843 13.0903 2.63529 13.1241H2.08929L1.012 7.685C0.980784 7.51381 1.01046 7.3462 1.10104 7.18219C1.19176 7.01832 1.31986 6.91046 1.48534 6.85862L2.68233 6.48519V2.99426C2.68233 2.60135 2.81351 2.26768 3.07586 1.99325C3.33822 1.71881 3.65714 1.58159 4.03261 1.58159H6.27476V0H9.72524V1.58159H11.9674C12.3429 1.58159 12.6618 1.71881 12.9243 1.99325C13.1867 2.26768 13.3179 2.60135 13.3179 2.99426V6.48519L14.5147 6.85862C14.6803 6.91046 14.8084 7.01832 14.899 7.18219C14.9895 7.3462 15.0192 7.51381 14.988 7.685L13.9107 13.1241H13.3647C13.0157 13.0903 12.687 12.9951 12.3786 12.8386C12.07 12.682 11.7515 12.4178 11.4231 12.046L10.7721 11.3651L10.0161 12.1119C9.47751 12.6943 9.07039 13.0016 8.79474 13.0339C8.51908 13.0659 8.2542 13.082 8.0001 13.082ZM7.99191 11.9397C8.22781 11.9397 8.44453 11.8834 8.64207 11.7708C8.83975 11.658 9.02741 11.5133 9.20507 11.3365L10.8252 9.76326L11.6459 10.7568C11.8322 10.9978 12.0312 11.2243 12.2427 11.4362C12.4544 11.648 12.7045 11.8181 12.9932 11.9465L13.8347 7.83877L7.99191 6.07463L2.15712 7.83877L2.99879 11.9465C3.28747 11.8181 3.53758 11.648 3.74912 11.4362C3.96079 11.2243 4.1598 10.9978 4.34614 10.7568L5.1666 9.76326L6.78695 11.3365C6.9646 11.5077 7.1522 11.651 7.34974 11.7664C7.54742 11.8819 7.76148 11.9397 7.99191 11.9397ZM3.75794 6.16931L7.99191 4.897L12.2259 6.16931V2.72385H3.75794V6.16931Z" fill="#FCFCFD"/>
</svg>
