<svg width="16" height="16" viewBox="0 0 16 16" fill="none" xmlns="http://www.w3.org/2000/svg">
<path d="M0.819038 12.2288L0 11.6486L3.43461 6.07955L5.72829 8.82227L8.92474 3.82329L10.9612 6.64962C10.7671 6.65444 10.5801 6.6686 10.4003 6.69209C10.2204 6.71546 10.0413 6.75691 9.86286 6.81647L8.96755 5.5771L5.83724 10.5014L3.56267 7.77775L0.819038 12.2288ZM15.2825 16L12.8139 13.5546C12.5737 13.7148 12.3212 13.8394 12.0566 13.9283C11.7919 14.0172 11.5101 14.0616 11.2112 14.0616C10.4221 14.0616 9.7534 13.7884 9.20495 13.2419C8.6565 12.6953 8.38228 12.029 8.38228 11.2427C8.38228 10.4565 8.6565 9.79009 9.20495 9.24358C9.7534 8.69707 10.4221 8.42381 11.2112 8.42381C12.0002 8.42381 12.6689 8.69707 13.2174 9.24358C13.7658 9.79009 14.04 10.4565 14.04 11.2427C14.04 11.5456 13.9942 11.8301 13.9026 12.0962C13.8109 12.3623 13.6822 12.6126 13.5165 12.847L15.9853 15.2997L15.2825 16ZM11.2112 13.0712C11.7209 13.0712 12.1541 12.8934 12.5109 12.5379C12.8677 12.1824 13.0461 11.7506 13.0461 11.2427C13.0461 10.7348 12.8677 10.3031 12.5109 9.94755C12.1541 9.59201 11.7209 9.41424 11.2112 9.41424C10.7015 9.41424 10.2682 9.59201 9.91141 9.94755C9.55461 10.3031 9.37621 10.7348 9.37621 11.2427C9.37621 11.7506 9.55461 12.1824 9.91141 12.5379C10.2682 12.8934 10.7015 13.0712 11.2112 13.0712ZM12.5551 6.78733C12.3844 6.72765 12.206 6.68733 12.0199 6.66638C11.8336 6.64543 11.6498 6.63495 11.4684 6.63495L15.181 1L16 1.58016L12.5551 6.78733Z" fill="#B20784"/>
</svg>
