<svg width="16" height="16" viewBox="0 0 16 16" fill="none" xmlns="http://www.w3.org/2000/svg">
<path d="M7.2833 15V13.8481H13.5316C13.6049 13.8481 13.6684 13.8254 13.722 13.7799C13.7755 13.7345 13.8022 13.6749 13.8022 13.6011V7.78003C13.8022 6.18967 13.2355 4.84498 12.102 3.74595C10.9686 2.64692 9.60293 2.0974 8.00484 2.0974C6.40674 2.0974 5.03941 2.64692 3.90286 3.74595C2.76615 4.84498 2.1978 6.18975 2.1978 7.78025V12.6211H1.36264C0.989451 12.6211 0.669084 12.4862 0.401539 12.2164C0.133846 11.9464 0 11.6173 0 11.2291V9.64101C0 9.32409 0.0994872 9.0497 0.298462 8.81785C0.497436 8.58614 0.749597 8.44193 1.05495 8.38522L1.0956 7.29801C1.18234 6.40735 1.41985 5.57666 1.80813 4.80592C2.19641 4.03518 2.70103 3.36723 3.32198 2.80206C3.94308 2.23689 4.6556 1.79525 5.45956 1.47715C6.26352 1.15905 7.11026 1 7.99978 1C8.88916 1 9.7359 1.15949 10.54 1.47848C11.3441 1.79732 12.0567 2.24036 12.6778 2.80759C13.2989 3.37468 13.805 4.03991 14.196 4.80326C14.5871 5.56676 14.8232 6.39377 14.9044 7.28427L14.9451 8.39364C15.2302 8.45611 15.4773 8.58931 15.6864 8.79326C15.8955 8.9972 16 9.25306 16 9.56082V11.362C16 11.6698 15.8955 11.9256 15.6864 12.1296C15.4773 12.3335 15.2302 12.4667 14.9451 12.5292V13.6011C14.9451 13.9885 14.807 14.3185 14.531 14.5911C14.2548 14.8637 13.9217 15 13.5316 15H7.2833ZM5.8 9.39047C5.61099 9.39047 5.44799 9.32586 5.31099 9.19665C5.17414 9.06743 5.10571 8.90749 5.10571 8.71684C5.10571 8.52633 5.1726 8.36351 5.30637 8.22839C5.44029 8.09311 5.60176 8.02547 5.79077 8.02547C5.97993 8.02547 6.14293 8.09156 6.27978 8.22373C6.41678 8.35576 6.48527 8.51703 6.48527 8.70753C6.48527 8.89819 6.41832 9.05967 6.2844 9.19199C6.15062 9.32431 5.98916 9.39047 5.8 9.39047ZM10.2092 9.39047C10.0201 9.39047 9.85707 9.32586 9.72022 9.19665C9.58322 9.06743 9.51472 8.90749 9.51472 8.71684C9.51472 8.52633 9.58169 8.36351 9.7156 8.22839C9.84938 8.09311 10.0108 8.02547 10.2 8.02547C10.389 8.02547 10.552 8.09156 10.689 8.22373C10.8259 8.35576 10.8943 8.51703 10.8943 8.70753C10.8943 8.89819 10.8274 9.05967 10.6936 9.19199C10.5597 9.32431 10.3982 9.39047 10.2092 9.39047ZM3.57912 8.26582C3.45853 6.95266 3.84403 5.82232 4.7356 4.87481C5.62733 3.92745 6.73011 3.45377 8.04396 3.45377C9.16088 3.45377 10.1344 3.82296 10.9644 4.56136C11.7946 5.29976 12.2727 6.22896 12.3989 7.34896C11.238 7.34896 10.1794 7.03691 9.22308 6.41282C8.26674 5.78858 7.52711 4.96526 7.00418 3.94288C6.81033 4.9118 6.4159 5.77514 5.82088 6.53288C5.22571 7.29062 4.47846 7.86827 3.57912 8.26582Z" fill="#62636C"/>
</svg>
