<svg width="16" height="16" viewBox="0 0 16 16" fill="none" xmlns="http://www.w3.org/2000/svg">
<path d="M1.53443 14.0761V15.6259C1.53443 15.7319 1.50051 15.8207 1.43266 15.8923C1.36464 15.9641 1.28042 16 1.18 16H0.35443C0.254008 16 0.169873 15.9641 0.102025 15.8923C0.0340084 15.8207 0 15.7319 0 15.6259V7.63832L1.9162 2.61256C2.0254 2.33162 2.20169 2.10556 2.44506 1.93437C2.68844 1.76299 2.96726 1.67731 3.28152 1.67731H6.03696V0H10.002V1.67731H12.7575C13.0522 1.67731 13.3197 1.76415 13.5603 1.93784C13.8006 2.11153 13.9751 2.33643 14.0838 2.61256L16 7.63832V15.6259C16 15.7319 15.966 15.8207 15.898 15.8923C15.8301 15.9641 15.746 16 15.6456 16H14.82C14.7196 16 14.6354 15.9641 14.5673 15.8923C14.4995 15.8207 14.4656 15.7319 14.4656 15.6259V14.0761H1.53443ZM1.75468 6.89013H14.2706L12.8413 3.06682H3.18405L1.75468 6.89013ZM3.71013 11.5602C3.99418 11.5602 4.23494 11.4552 4.4324 11.2452C4.6297 11.0353 4.72835 10.7805 4.72835 10.4807C4.72835 10.1809 4.62894 9.92675 4.43013 9.71832C4.23114 9.51007 3.98962 9.40595 3.70557 9.40595C3.42152 9.40595 3.18084 9.51088 2.98354 9.72073C2.78608 9.93076 2.68734 10.1857 2.68734 10.4855C2.68734 10.7853 2.78684 11.0393 2.98582 11.2476C3.18464 11.456 3.42608 11.5602 3.71013 11.5602ZM12.2944 11.5602C12.5785 11.5602 12.8192 11.4552 13.0165 11.2452C13.2139 11.0353 13.3127 10.7805 13.3127 10.4807C13.3127 10.1809 13.2132 9.92675 13.0142 9.71832C12.8154 9.51007 12.5739 9.40595 12.2899 9.40595C12.0058 9.40595 11.7651 9.51088 11.5676 9.72073C11.3703 9.93076 11.2716 10.1857 11.2716 10.4855C11.2716 10.7853 11.3711 11.0393 11.5699 11.2476C11.7689 11.456 12.0104 11.5602 12.2944 11.5602ZM1.31646 12.6865H14.6835V8.27964H1.31646V12.6865Z" fill="#FCFCFD"/>
</svg>
