<svg width="16" height="16" viewBox="0 0 16 16" fill="none" xmlns="http://www.w3.org/2000/svg">
<path d="M10.6582 15L5.34177 13.3973L2.25934 14.4125C1.95379 14.5142 1.66751 14.474 1.40051 14.2919C1.1335 14.1098 1 13.843 1 13.4914V3.19354C1 2.97316 1.06166 2.77452 1.18497 2.59763C1.30813 2.42073 1.46179 2.3009 1.64595 2.23812L5.34177 1L10.6582 2.60275L13.7407 1.58745C14.0462 1.45612 14.3325 1.48461 14.5995 1.67293C14.8665 1.86126 15 2.12838 15 2.47431V12.8407C15 13.0668 14.9378 13.2705 14.8135 13.452C14.689 13.6335 14.5245 13.7482 14.3202 13.7962L10.6582 15ZM10.0823 13.6337V3.61649L5.91772 2.3492V12.3664L10.0823 13.6337ZM11.2342 13.5891L13.8481 12.7192V2.74655L11.2342 3.61649V13.5891ZM2.1519 13.2534L4.76582 12.3664V2.39372L2.1519 3.2808V13.2534Z" fill="#FCFCFD"/>
</svg>
