<svg width="16" height="16" viewBox="0 0 16 16" fill="none" xmlns="http://www.w3.org/2000/svg">
<rect width="16" height="16" fill="white" fill-opacity="0.01"/>
<path fill-rule="evenodd" clip-rule="evenodd" d="M5.86589 1.06641C5.57134 1.06641 5.33255 1.30519 5.33255 1.59974C5.33255 1.89429 5.57134 2.13307 5.86589 2.13307H10.1326C10.4271 2.13307 10.6659 1.89429 10.6659 1.59974C10.6659 1.30519 10.4271 1.06641 10.1326 1.06641H5.86589ZM3.19922 3.73307C3.19922 3.43852 3.438 3.19974 3.73255 3.19974H5.33255H10.6659H12.2659C12.5604 3.19974 12.7992 3.43852 12.7992 3.73307C12.7992 4.02762 12.5604 4.26641 12.2659 4.26641H11.7326V12.7997C11.7326 13.3889 11.255 13.8664 10.6659 13.8664H5.33255C4.74345 13.8664 4.26589 13.3889 4.26589 12.7997V4.26641H3.73255C3.438 4.26641 3.19922 4.02762 3.19922 3.73307ZM5.33255 4.26641H10.6659V12.7997H5.33255V4.26641Z" fill="#B20784"/>
</svg>
