<svg width="17" height="17" viewBox="0 0 17 17" fill="none" xmlns="http://www.w3.org/2000/svg">
<g clip-path="url(#clip0_2308_7315)">
<path d="M3.09763 10.951C2.92281 10.5913 2.7795 10.2059 2.6677 9.79478C2.5559 9.38349 2.5 8.9519 2.5 8.5C2.5 6.87034 3.09216 5.48255 4.27647 4.33661C5.46079 3.19053 6.9118 2.63843 8.6295 2.6803H9.15245L7.7064 1.27771L8.5082 0.5L11.3174 3.22458L8.5082 5.94917L7.7064 5.17146L9.15245 3.76887H8.6295C7.21611 3.74096 6.0282 4.1937 5.06576 5.12708C4.10345 6.06061 3.6223 7.18491 3.6223 8.5C3.6223 8.79099 3.64691 9.07464 3.69612 9.35098C3.74547 9.62745 3.81935 9.89561 3.91777 10.1555L3.09763 10.951ZM8.4918 16.5L5.68259 13.7754L8.4918 11.0508L9.2936 11.8285L7.84755 13.2311H8.3705C9.78389 13.259 10.9718 12.8063 11.9342 11.8729C12.8965 10.9394 13.3777 9.81509 13.3777 8.5C13.3777 8.20901 13.3531 7.92536 13.3039 7.64902C13.2545 7.37255 13.1806 7.10439 13.0822 6.84452L13.9024 6.04903C14.0772 6.40867 14.2205 6.79407 14.3323 7.20522C14.4441 7.61651 14.5 8.0481 14.5 8.5C14.5 10.1157 13.9078 11.5 12.7235 12.6529C11.5392 13.806 10.0882 14.3616 8.3705 14.3197H7.84755L9.2936 15.7223L8.4918 16.5Z" fill="#00509D"/>
</g>
<defs>
<clipPath id="clip0_2308_7315">
<rect width="16" height="16" fill="white" transform="translate(0.5 0.5)"/>
</clipPath>
</defs>
</svg>
