<svg width="16" height="17" viewBox="0 0 16 17" fill="none" xmlns="http://www.w3.org/2000/svg">
<rect width="16" height="16" transform="translate(0 0.5)" fill="white" fill-opacity="0.01"/>
<path fill-rule="evenodd" clip-rule="evenodd" d="M8.33895 1.7607C8.15149 1.57326 7.84758 1.57326 7.66012 1.7607L4.46012 4.9607C4.27266 5.14816 4.27266 5.45207 4.46012 5.63953C4.64758 5.82697 4.95149 5.82697 5.13895 5.63953L7.51953 3.25894V10.6333C7.51953 10.8984 7.73443 11.1133 7.99953 11.1133C8.26463 11.1133 8.47953 10.8984 8.47953 10.6333V3.25894L10.8602 5.63953C11.0476 5.82697 11.3515 5.82697 11.5389 5.63953C11.7264 5.45207 11.7264 5.14816 11.5389 4.9607L8.33895 1.7607ZM2.66615 11.1667C2.9607 11.1667 3.19948 11.4054 3.19948 11.7V13.3C3.19948 13.8907 3.67484 14.3667 4.26225 14.3667H11.7341C12.3226 14.3667 12.7995 13.8897 12.7995 13.3V11.7C12.7995 11.4054 13.0383 11.1667 13.3328 11.1667C13.6273 11.1667 13.8661 11.4054 13.8661 11.7V13.3C13.8661 14.4776 12.9128 15.4334 11.7341 15.4334H4.26225C3.08235 15.4334 2.13281 14.4766 2.13281 13.3V11.7C2.13281 11.4054 2.3716 11.1667 2.66615 11.1667Z" fill="#1C68B7"/>
</svg>
